<svg xmlns="http://www.w3.org/2000/svg" width="702.487" height="432.089" viewBox="0 0 702.487 432.089">
  <g id="undraw_under_construction_46pa" transform="translate(0.02 0)">
    <path id="Path_283" data-name="Path 283" d="M713.557,365.28a143.954,143.954,0,0,1-4.217,34.736q-1.42,5.743-3.3,11.248a132.832,132.832,0,0,1-5.32,13.312q-1.521,3.292-3.215,6.453a86.815,86.815,0,0,1-7.258,34.885,89.934,89.934,0,0,1-43.646,44.97,91.806,91.806,0,0,1-38.964,8.946h-463.2a116.706,116.706,0,0,1-58.7-15.692l-.274-.155q-3.811-2.231-7.431-4.724a116.546,116.546,0,0,1-15.25-12.573,113.487,113.487,0,0,1-16.765-20.773,110.851,110.851,0,0,1-17.052-59.183A139.567,139.567,0,0,1,11.07,337.618c0-32.207,10.473-61.586,27.68-83.827a117.853,117.853,0,0,1,11.755-13.079,109.394,109.394,0,0,1,13.443-11,104.6,104.6,0,0,1,11.928-7.157c1.724-.877,3.453-1.706,5.213-2.475,1.545-.686,3.107-1.324,4.688-1.926q2.845-1.08,5.761-1.986t5.755-1.586q4.175-1.02,8.493-1.658c2.386-.352,4.771-.6,7.157-.781,1.9-.143,3.811-.221,5.738-.245h1.044c2.123,0,4.235.084,6.328.227.221-.441.459-.889.68-1.324.835-1.592,1.7-3.179,2.571-4.73a.15.15,0,0,1,0-.042c.149-.274.3-.543.453-.805.7-1.27,1.437-2.529,2.189-3.775.346-.6.686-1.157,1.038-1.718a4.563,4.563,0,0,1,.245-.406q.537-.895,1.091-1.789,2.761-4.413,5.744-8.672l.507-.728c.31-.441.6-.871.942-1.312.823-1.151,1.67-2.308,2.523-3.441.6-.811,1.193-1.616,1.837-2.386q2.326-2.982,4.771-5.964t5.081-5.887c.239-.268.477-.531.728-.793L159,165.569h0c.125-.131.233-.25.352-.37h0c.3-.328.6-.656.924-.972,1.366-1.449,2.767-2.869,4.175-4.282a227.354,227.354,0,0,1,22.843-19.9c.316-.251.638-.489.954-.728,1.515-1.139,3.054-2.266,4.592-3.376a241.731,241.731,0,0,1,26.487-16.521c.632-.364,1.276-.7,1.926-1.038A252.883,252.883,0,0,1,246.6,106.714c4.718-1.867,9.543-3.62,14.4-5.225,3.233-1.062,6.477-2.07,9.763-3.018q7.706-2.219,15.519-3.978a276.35,276.35,0,0,1,46.664-6.358q7.157-.364,14.475-.376A277.338,277.338,0,0,1,417.2,96.587a2.517,2.517,0,0,0,2.165,1.127h2c.871.239,1.736.477,2.606.728q7.294,2.1,14.38,4.586l1.193.429a256.725,256.725,0,0,1,33.942,14.91,244.934,244.934,0,0,1,28.419,17.559q2.093,1.5,4.127,3.03,2.469-1.581,5.022-3.03a98.78,98.78,0,0,1,20.8-8.869,94.891,94.891,0,0,1,46.664-1.825c19.831,4.2,37.783,14.642,52.282,29.487a121.994,121.994,0,0,1,15.68,19.908c.328.513.656,1.032.972,1.557a131.208,131.208,0,0,1,9.984,19.9c.1.256.2.5.292.746a137.811,137.811,0,0,1,6.143,19.891c.072.346.155.686.227,1.032a143.208,143.208,0,0,1,2.934,19.9,3.853,3.853,0,0,0,.048.734q.376,5.195.382,10.5c0,3.161-.107,6.3-.3,9.412,0,.34-.048.692-.078,1.044-.054.9-.131,1.789-.209,2.7a113.192,113.192,0,0,1,12.751,12.03q2.606,2.845,5.046,5.9a125.612,125.612,0,0,1,13,19.9A139.671,139.671,0,0,1,713.557,365.28Z" transform="translate(-11.09 -87.76)" fill="#4f68c4" opacity="0.1"/>
    <path id="Path_284" data-name="Path 284" d="M696.5,778.519c0,4.074-14.034,7.891-38.523,11.171h-463.2A116.708,116.708,0,0,1,136.074,774l-.274-.155c7.038-2.565,19.742-4.956,37.032-7.115h0l.775-.1c7.753-.948,16.419-1.849,25.891-2.7a5.9,5.9,0,0,0,.722-.066h0q11.272-1,23.982-1.879c.268,0,.531-.048.8-.06q4.9-.352,10.008-.668h0l1.312-.083c24.781-1.539,52.95-2.767,83.5-3.578h.036q6.417-.179,12.972-.316,7.288-.173,14.755-.3c3.8-.083,7.646-.143,11.5-.2h.089c17.409-.262,35.4-.394,53.791-.394,45.483,0,88.473.829,126.566,2.32h.107c5.857.227,11.606.477,17.213.734l4.771.227q9.489.453,18.489.972h0C650.671,764.646,696.5,771.165,696.5,778.519Z" transform="translate(-61.429 -357.602)" fill="#4f68c4" opacity="0.1"/>
    <g id="Group_780" data-name="Group 780" transform="translate(370.578 235.578)" opacity="0.2">
      <path id="Path_285" data-name="Path 285" d="M682.745,746.009a11.33,11.33,0,0,1-.221,1.915q-6.227-.99-12.525-1.789v-.513a10.067,10.067,0,0,1,1.491-5.058,5.549,5.549,0,0,1,10.1.31,10.061,10.061,0,0,1,1.157,5.135Z" transform="translate(-647.599 -585.547)" fill="#3f3d56"/>
      <ellipse id="Ellipse_71" data-name="Ellipse 71" cx="8.356" cy="6.382" rx="8.356" ry="6.382" transform="translate(22.47 158.222) rotate(-88.19)" fill="#3f3d56"/>
      <ellipse id="Ellipse_72" data-name="Ellipse 72" cx="8.356" cy="6.382" rx="8.356" ry="6.382" transform="translate(22.795 148.011) rotate(-88.19)" fill="#3f3d56"/>
      <ellipse id="Ellipse_73" data-name="Ellipse 73" cx="8.356" cy="6.382" rx="8.356" ry="6.382" transform="translate(23.115 137.8) rotate(-88.19)" fill="#3f3d56"/>
      <ellipse id="Ellipse_74" data-name="Ellipse 74" cx="8.356" cy="6.382" rx="8.356" ry="6.382" transform="translate(23.434 127.589) rotate(-88.19)" fill="#3f3d56"/>
      <path id="Path_286" data-name="Path 286" d="M640.808,531.536a29.617,29.617,0,0,1-2.266-3.578l16.855-2.225-18.143-.435a30.644,30.644,0,0,1,.185-24.239l23.928,13.39-21.918-17.2a30.584,30.584,0,1,1,49.407,35.785,30.3,30.3,0,0,1,3.31,5.684l-22.121,10.616,23.457-7.056a30.62,30.62,0,0,1-5.857,28.574,30.584,30.584,0,1,1-48.048-1.515,30.584,30.584,0,0,1,1.193-37.8Z" transform="translate(-632.44 -482.747)" fill="#4f68c4"/>
      <path id="Path_287" data-name="Path 287" d="M694.8,598.794a30.417,30.417,0,0,1-7.157,18.692,30.584,30.584,0,1,1-48.048-1.515C635.679,610.645,694.909,595.365,694.8,598.794Z" transform="translate(-632.44 -529.381)" opacity="0.1"/>
    </g>
    <g id="Group_781" data-name="Group 781" transform="translate(279.922 235.578)" opacity="0.2">
      <path id="Path_288" data-name="Path 288" d="M530.745,746.009a11.33,11.33,0,0,1-.221,1.915q-6.227-.99-12.525-1.789v-.513a10.067,10.067,0,0,1,1.491-5.058,5.549,5.549,0,0,1,10.1.31,10.061,10.061,0,0,1,1.157,5.135Z" transform="translate(-495.599 -585.547)" fill="#3f3d56"/>
      <ellipse id="Ellipse_75" data-name="Ellipse 75" cx="8.356" cy="6.382" rx="8.356" ry="6.382" transform="translate(22.463 158.224) rotate(-88.19)" fill="#3f3d56"/>
      <ellipse id="Ellipse_76" data-name="Ellipse 76" cx="8.356" cy="6.382" rx="8.356" ry="6.382" transform="translate(22.788 148.013) rotate(-88.19)" fill="#3f3d56"/>
      <ellipse id="Ellipse_77" data-name="Ellipse 77" cx="8.356" cy="6.382" rx="8.356" ry="6.382" transform="translate(23.108 137.802) rotate(-88.19)" fill="#3f3d56"/>
      <ellipse id="Ellipse_78" data-name="Ellipse 78" cx="8.356" cy="6.382" rx="8.356" ry="6.382" transform="translate(23.427 127.591) rotate(-88.19)" fill="#3f3d56"/>
      <path id="Path_289" data-name="Path 289" d="M488.808,531.536a29.621,29.621,0,0,1-2.266-3.578l16.855-2.225-18.143-.435a30.644,30.644,0,0,1,.185-24.239l23.928,13.39-21.918-17.2a30.584,30.584,0,1,1,49.407,35.785,30.293,30.293,0,0,1,3.31,5.684l-22.121,10.616,23.457-7.056a30.62,30.62,0,0,1-5.857,28.574,30.584,30.584,0,1,1-48.048-1.515,30.584,30.584,0,0,1,1.193-37.8Z" transform="translate(-480.44 -482.747)" fill="#4f68c4"/>
      <path id="Path_290" data-name="Path 290" d="M542.8,598.794a30.417,30.417,0,0,1-7.157,18.692,30.584,30.584,0,1,1-48.048-1.515C483.679,610.645,542.909,595.365,542.8,598.794Z" transform="translate(-480.44 -529.381)" opacity="0.1"/>
    </g>
    <g id="Group_782" data-name="Group 782" transform="translate(495.078 93.76)" opacity="0.2">
      <path id="Path_291" data-name="Path 291" d="M937.934,751.572a22.246,22.246,0,0,1-.435,3.626q-11.988-1.914-24.149-3.423v-.984a19.384,19.384,0,0,1,2.875-9.74c2.386-3.74,5.964-6.083,9.919-5.964s7.4,2.69,9.543,6.561a19.4,19.4,0,0,1,2.249,9.924Z" transform="translate(-870.31 -442.767)" fill="#3f3d56"/>
      <ellipse id="Ellipse_79" data-name="Ellipse 79" cx="16.091" cy="12.292" rx="16.091" ry="12.292" transform="translate(43.195 304.479) rotate(-88.19)" fill="#3f3d56"/>
      <ellipse id="Ellipse_80" data-name="Ellipse 80" cx="16.091" cy="12.292" rx="16.091" ry="12.292" transform="translate(43.815 284.82) rotate(-88.19)" fill="#3f3d56"/>
      <ellipse id="Ellipse_81" data-name="Ellipse 81" cx="16.091" cy="12.292" rx="16.091" ry="12.292" transform="translate(44.441 265.162) rotate(-88.19)" fill="#3f3d56"/>
      <ellipse id="Ellipse_82" data-name="Ellipse 82" cx="16.091" cy="12.292" rx="16.091" ry="12.292" transform="translate(44.373 244.654) rotate(-88.282)" fill="#3f3d56"/>
      <path id="Path_292" data-name="Path 292" d="M857.25,338.785a59.2,59.2,0,0,1-4.36-6.877l32.445-4.282-34.92-.841a58.985,58.985,0,0,1,.346-46.664l46.073,25.771-42.191-33.113A58.879,58.879,0,1,1,949.755,341.7a58.869,58.869,0,0,1,6.376,10.944L913.54,373.1l45.155-13.6a58.9,58.9,0,0,1-11.231,54.96,58.879,58.879,0,1,1-92.5-2.916,58.9,58.9,0,0,1,2.29-72.763Z" transform="translate(-841.186 -244.965)" fill="#4f68c4"/>
      <path id="Path_293" data-name="Path 293" d="M961.222,468.183A58.651,58.651,0,0,1,947.5,504.171a58.879,58.879,0,1,1-92.5-2.917C847.4,490.991,961.431,461.581,961.222,468.183Z" transform="translate(-841.202 -334.666)" opacity="0.1"/>
    </g>
    <path id="Path_294" data-name="Path 294" d="M157.82,417.083l6.256-.018H172.9l11.153-181.18L294.5,51.573l-4.8-5.153V33.37L170.249,231.614Z" transform="translate(-63.701 -13.468)" fill="#f1c0c0"/>
    <path id="Path_295" data-name="Path 295" d="M169.43,425.9h8.153l11.153-181.18L299.187,60.4l-4.8-5.153-113.928,186.7Z" transform="translate(-68.387 -22.298)" opacity="0.1"/>
    <path id="Path_296" data-name="Path 296" d="M126.91,670.688l286.192,21.9.245.018,276.971-17.034.209-.012v-11.7l-305.188-5.6-254.618-.245H128.86l-.2,1.312Z" transform="translate(-51.226 -265.564)" fill="#f1c0c0"/>
    <path id="Path_297" data-name="Path 297" d="M126.91,670.688l286.192,21.9.245.018,276.971-17.034.209-.227V664.109h-.245L413.1,673.366,130.721,658.02h-.042l-.5.328-1.521.984Z" transform="translate(-51.226 -265.564)" opacity="0.1"/>
    <path id="Path_298" data-name="Path 298" d="M126.91,670.91,413.1,692.81V673.588L130.178,658.57l-1.521.984Z" transform="translate(-51.226 -265.786)" opacity="0.1"/>
    <path id="Path_299" data-name="Path 299" d="M378.88,46.268,505.053,181.691l-3.9,238.21L511.87,421.2l.179.024h10.718l1.282-229.3,236.26,78.918,3.984,140.516,8.624.966,2.922.328-6.763-151.556L522.1,174.385,386.675,33.6h-7.8Z" transform="translate(-152.917 -13.56)" fill="#f1c0c0"/>
    <path id="Path_300" data-name="Path 300" d="M620.65,291.7l.972,4.384L857.882,375l3.984,140.516,8.624.966-6.763-144.405Z" transform="translate(-250.49 -117.725)" opacity="0.1"/>
    <path id="Path_301" data-name="Path 301" d="M378.88,46.268,505.053,181.691l-3.9,238.21L511.87,421.2l2.922-247.3L378.88,33.6Z" transform="translate(-152.917 -13.56)" opacity="0.1"/>
    <path id="Path_302" data-name="Path 302" d="M621.42,441.521l86.654,17.064.03.006,151.771,29.9,6.948-2.785-.024-.489-.453-9.692L621.509,426.05Z" transform="translate(-250.801 -171.945)" fill="#f1c0c0"/>
    <path id="Path_303" data-name="Path 303" d="M766.76,480.61l151.771,29.9,6.948-2.785-.024-.489Z" transform="translate(-309.457 -193.965)" opacity="0.1"/>
    <path id="Path_304" data-name="Path 304" d="M776.49,350.56l2.344,129.029,1.211,66.2,10.67-.358,6.716-.227-2.088-192.775-4.628-1.539-1.014-.328Z" transform="translate(-313.384 -141.479)" fill="#f1c0c0"/>
    <path id="Path_305" data-name="Path 305" d="M776.65,350.51v.03L778.9,479.569l1.211,66.2,10.67-.358V350.51Z" transform="translate(-313.449 -141.459)" opacity="0.1"/>
    <path id="Path_306" data-name="Path 306" d="M495.449,488.012a13.6,13.6,0,0,1,1.789,1.163,11.836,11.836,0,0,1,1.789,1.962c2.559,3.31,4.92,7.157,4.67,11.332a4.61,4.61,0,0,1-1.33,3.28c-1.056.9-2.57.942-3.954.942a8.419,8.419,0,0,1-4.384-.775c-1.3-.775-2.386-2.284-3.924-2.249a2.009,2.009,0,0,1-.656,0c-.531-.173-.638-.871-.984-1.312-.6-.793-1.855-.6-2.791-.25s-1.974.865-2.9.465a3.012,3.012,0,0,1-1.258-1.258c-2.213-3.579-2.684-7.879-3.1-12.036-.256-2.529-2.213-11.153,3.185-9.191,2.386.859,4.616,2.577,6.787,3.835Z" transform="translate(-199.477 -245.979)" fill="#3f3d56"/>
    <path id="Path_307" data-name="Path 307" d="M497.667,492.8a2.66,2.66,0,0,0,3.274-.131,4.933,4.933,0,0,0,1.592-3.089c.6-.185.9.6,1.282,1.074.668.811,2.028.8,2.636,1.664.423.6.328,1.425.626,2.1.388.871,1.348,1.324,2,2.028a6.906,6.906,0,0,1,1.312,2.618l.978,2.934a14.5,14.5,0,0,1,.895,3.8,4.92,4.92,0,0,1-1.133,3.632c-1.312,1.414-3.465,1.563-5.368,1.521a6.907,6.907,0,0,1-1.885-.221,5.35,5.35,0,0,1-3.215-3.936,49.707,49.707,0,0,1-.662-5.26,20.619,20.619,0,0,0-1.491-5c-.525-1.241-1.968-3.089-1.944-4.408C497,492.128,497.309,492.522,497.667,492.8Z" transform="translate(-207.028 -249.916)" fill="#3f3d56"/>
    <path id="Path_308" data-name="Path 308" d="M496.495,479.668a9.848,9.848,0,0,1-.483-2.618,11.4,11.4,0,0,1,1.64-5.07l-6.817.924a3.019,3.019,0,0,0-2.207.966,2.386,2.386,0,0,0,0,2.2,11.247,11.247,0,0,1,.811,2.129,10.633,10.633,0,0,0,.221,1.915,4.055,4.055,0,0,0,.877,1.235,41.353,41.353,0,0,1,4.867,7.229c-.042-.072,4.109-3.286,3.942-4.336-.1-.6-1.294-1.312-1.676-1.885A9.6,9.6,0,0,1,496.495,479.668Z" transform="translate(-203.714 -242.824)" fill="#be6f72"/>
    <path id="Path_309" data-name="Path 309" d="M505.123,358.04v5.875l-100.6,19.622-5.219,3.161H381.3v-3.31l98.839-23.881Z" transform="translate(-153.893 -144.498)" fill="#f1c0c0"/>
    <path id="Path_310" data-name="Path 310" d="M505.123,367.89l-100.6,19.622-5.219,3.161H381.3l99.572-21.31Z" transform="translate(-153.893 -148.473)" opacity="0.1"/>
    <path id="Path_311" data-name="Path 311" d="M453.243,723.5a7.8,7.8,0,0,0-9.483-2.016,2.5,2.5,0,0,0-.871.68c-.6.835-.215,1.986-.161,3.018.137,2.517-1.867,4.563-3.668,6.322a8.672,8.672,0,0,0-2.386,3.233,3.029,3.029,0,0,0,1.056,3.578,4.4,4.4,0,0,0,1.634.453,17.636,17.636,0,0,0,5.785.161,6.268,6.268,0,0,0,4.592-3.2,3.371,3.371,0,0,1,.769-1.27c1.05-.829,2.66.143,3.853-.447.984-.489,1.026-1.258,1.038-2.272C455.438,728.943,455.02,725.77,453.243,723.5Z" transform="translate(-182.781 -343.191)" fill="#4f68c4"/>
    <path id="Path_312" data-name="Path 312" d="M479.843,720.419a19.638,19.638,0,0,1,.93,6.1,5.887,5.887,0,0,1-.555,3.477,4.751,4.751,0,0,1-3.107,1.789c-2.487.513-5.368.03-6.972-1.944a7.357,7.357,0,0,1-1.258-5.535c.191-1.6.6-3.483-.555-4.622-.3-.3-.686-.519-.96-.847a2.842,2.842,0,0,1-.179-2.72,11.811,11.811,0,0,0,.936-2.69c.048-.441,8.076.31,8.815.674,1.008.5.853,1.324,1.157,2.326C478.519,717.824,479.33,719.083,479.843,720.419Z" transform="translate(-195.067 -340.213)" fill="#4f68c4"/>
    <path id="Path_313" data-name="Path 313" d="M464.855,580.333c1.575,1.02,2.183,3.024,2.427,4.885.674,5.1-.507,10.253-.6,15.4-.083,7.211,2,14.553.221,21.537-1.068,4.175-.161,8.946-1.163,13.163-.3,1.253-.847,2.433-1.133,3.686-.6,2.714.03,5.553.871,8.207a8.474,8.474,0,0,1,.507,2.225,8,8,0,0,1-.871,3.364l-3.579,8.463c-.4.948-1.974,1.1-2.982,1.229-1.9.227-4.014.388-5.523-.787s-1.873-3.143-2.105-4.98a76.338,76.338,0,0,1-.6-10.634,8.761,8.761,0,0,0-.245-2.761,24.194,24.194,0,0,1-1.246-2.982c-.25-1.4.459-2.767.722-4.175a12.578,12.578,0,0,0-.06-3.871c-.233-1.909-.5-3.817-.805-5.714-.429-2.654.185-5.272.6-7.932a21.87,21.87,0,0,0-.6-7.527,20.748,20.748,0,0,1-.745,5.964c-.316.948-.769,1.855-1.044,2.821-1.223,4.336,1.384,8.887,1.014,13.378-.173,2.1-1,4.175-.763,6.244a21.069,21.069,0,0,0,1.348,4.348,5.636,5.636,0,0,1,0,4.443c-1.938,3.662-.489,8.642,1.247,12.4a16.742,16.742,0,0,1,.918,2.064c.513,1.694.083,3.513.221,5.278a3.328,3.328,0,0,1-2.8-.841c-.262-.274-.477-.6-.734-.883a7.284,7.284,0,0,0-2.493-1.557,3.275,3.275,0,0,0-1.789-.411,3.579,3.579,0,0,0-1.7,1.056,16.658,16.658,0,0,1-1.873,1.425,2.218,2.218,0,0,1-.954.424.841.841,0,0,1-.877-.447,1.061,1.061,0,0,1-.066-.31,47.215,47.215,0,0,1-.352-5.427c0-3.119-3.734-5.266-4.2-8.35-.376-2.487.322-5.022.089-7.527a36.612,36.612,0,0,1-.447-3.841c0-.835.191-1.652.256-2.481a18.553,18.553,0,0,0-.042-2.761l-.185-2.881a24.892,24.892,0,0,0-1.5-8.35,28.371,28.371,0,0,1-2.326-9.59c-.119-2.087-.042-4.175-.28-6.268a30.865,30.865,0,0,1-.555-5.666c.113-1.467.6-2.887.71-4.354.233-2.821-.841-5.565-1.682-8.266s-1.461-5.7-.358-8.3a2.726,2.726,0,0,1,.763-1.109,3.328,3.328,0,0,1,1.408-.525,109.209,109.209,0,0,1,31.145-1.986A10.342,10.342,0,0,1,464.855,580.333Z" transform="translate(-178.606 -285.809)" fill="#3f3d56"/>
    <circle id="Ellipse_83" data-name="Ellipse 83" cx="9.555" cy="9.555" r="9.555" transform="translate(242.836 212.069)" fill="#be6f72"/>
    <path id="Path_314" data-name="Path 314" d="M428.686,473.024a3.412,3.412,0,0,1,0,1.664,3.769,3.769,0,0,1-.626,1.05,26.96,26.96,0,0,1-3.06,3.328,5.541,5.541,0,0,0,2.857,2.821,16.587,16.587,0,0,0,3.942,1.127,4.132,4.132,0,0,0,3.865-.668l5.308-3.179a10.6,10.6,0,0,0,2.207-1.592,5.433,5.433,0,0,0,1.539-3.734,1.026,1.026,0,0,0-.191-.7,1.253,1.253,0,0,0-.728-.3,6.468,6.468,0,0,1-4.175-3.644,19.3,19.3,0,0,1-1.449-5.529l-5.66,2.982c-.841.447-1.676.895-2.547,1.282-.555.25-1.676.459-2.07.966C427.147,469.827,428.489,471.9,428.686,473.024Z" transform="translate(-178.144 -239.466)" fill="#be6f72"/>
    <path id="Path_315" data-name="Path 315" d="M423.717,482.461a6.292,6.292,0,0,0-1.831,2.475,6.449,6.449,0,0,0,.334,3.632A108.366,108.366,0,0,1,425.8,503.95c.5,3.578.686,7.211.93,10.831.5,7.384,1.229,19.157,2.2,26.493,3.578.161,7.068-.883,10.616-1.264,6.632-.7,13.461.907,19.956-.6-1.575-6.221-3.149-16.843-4.724-23.058a44,44,0,0,1-1.443-7.485c-.137-1.819-.054-3.644-.03-5.475.054-3.578-.143-7.157-.34-10.736a68.113,68.113,0,0,0-1.443-12.435,2.313,2.313,0,0,0-.692-1.366,2.8,2.8,0,0,0-2.081-.185,9.054,9.054,0,0,1-6.191-1.467c-.787-.537-1.843-1.193-2.576-.6a2.565,2.565,0,0,0-.6,1.27,6.352,6.352,0,0,1-3.734,3.68,18.685,18.685,0,0,1-5.284,1.086,2.6,2.6,0,0,1-1.64-.185c-.847-.519-.907-2.386-1.974-2.511C425.816,479.843,424.349,481.858,423.717,482.461Z" transform="translate(-176.825 -244.597)" fill="#3f3d56"/>
    <path id="Path_316" data-name="Path 316" d="M430.666,497.293c-2.2-2.105-3.167-5.159-4.771-7.753a17.259,17.259,0,0,0-4.121-4.533,12.293,12.293,0,0,1-2.243-1.9c-.567-.7-1-1.628-1.855-1.9a2.242,2.242,0,0,0-2.01.555,19.773,19.773,0,0,0-1.491,1.586c-2.529,2.618-6.972,2.982-8.976,6.012a4.927,4.927,0,0,0-1.068,2.237,17.332,17.332,0,0,0,3.185,12.465,4.235,4.235,0,0,0,2.207,1.789,6.906,6.906,0,0,0,.429,3.28,87.72,87.72,0,0,0,4.062,11.064,26.759,26.759,0,0,0-.8,4.288c-.418,3.644-.03,7.342-.423,10.992-.322,2.982-1.193,5.887-1.223,8.875,0,.477.042,1.044.453,1.288a1.372,1.372,0,0,0,.71.149l7.336.221a59.544,59.544,0,0,0,12.751-.537,5.307,5.307,0,0,0,1.6-.507c1.419-.793,1.891-2.583,2.117-4.175a36.379,36.379,0,0,0,.352-6.239c.889,2.809,1.944,5.714,4.628,6.93a10.383,10.383,0,0,0,4.6.555A86.586,86.586,0,0,0,456.133,541a1.318,1.318,0,0,0,1.461-1.533l.036-3.256c.072-6.614-1.569-12.936-2.207-19.521a42.446,42.446,0,0,0-.692-6.209c-.209-.853-.513-1.688-.7-2.547a18.2,18.2,0,0,1-.3-2.547l-.465-6.561c-.221-3.036-.537-5.964-.769-8.994a43.536,43.536,0,0,0-1.276-8.744c-.519-1.789-1.6-3.817-3.465-4.038a7.143,7.143,0,0,0-2.911.626,11.762,11.762,0,0,1-7.157-.03,10.082,10.082,0,0,0-2.231-.6,2.189,2.189,0,0,0-2.04.847,3.06,3.06,0,0,0-.316,1.5A79.55,79.55,0,0,1,430.666,497.293Z" transform="translate(-169.662 -244.864)" fill="#4f68c4"/>
    <path id="Path_317" data-name="Path 317" d="M421.429,505.367c-2.749-2.9-5.571-5.851-9.113-7.694a7.279,7.279,0,0,0-4.527-1,3.389,3.389,0,0,0-2.911,3.185,20.6,20.6,0,0,0,.823,2.785c.215,1.074-.1,2.219.239,3.256a5.511,5.511,0,0,0,1.193,1.831l4.223,5a27.182,27.182,0,0,0,5.881,5.648,8.839,8.839,0,0,0,7.813,1.091,9.6,9.6,0,0,0,4.282-3.93c1.05-1.67,1.789-3.495,2.773-5.219a25.915,25.915,0,0,1,5.964-7.235c-1.241-.322-2.8-.775-3.579-1.789a5.913,5.913,0,0,1-.567-1.026l-.966-2.087a2.386,2.386,0,0,0-1.789.674,15,15,0,0,1-1.33,1.354c-.841.632-1.98.805-2.744,1.527a7.264,7.264,0,0,0-.8,1,6.692,6.692,0,0,1-4.867,2.624Z" transform="translate(-170.022 -252.76)" fill="#3f3d56"/>
    <path id="Path_318" data-name="Path 318" d="M456.6,478.917c2.07-3.775,1.974-8.3,2.565-12.567a5.738,5.738,0,0,1,1.139-3.119c1.193-1.348,3.3-1.366,5.1-1.193.531.06,1.193.31,1.163.841a1.074,1.074,0,0,1-.268.507,14.188,14.188,0,0,0-2.946,7.825c.936.65,2.386-.686,3.286,0,.6.5.322,1.491-.036,2.207q-1.247,2.487-2.571,4.938a15.859,15.859,0,0,1-2.726,3.93c-.757.728-1.646,1.3-2.415,2.016-1.789,1.676-2.869,4.044-4.718,5.678a.966.966,0,0,1-.6.3,1,1,0,0,1-.626-.28,9.042,9.042,0,0,1-2.254-2.726c-.7-1.3-.6-1.682.513-2.6A19.713,19.713,0,0,0,456.6,478.917Z" transform="translate(-188.337 -238.781)" fill="#be6f72"/>
    <path id="Path_319" data-name="Path 319" d="M419.261,501.6c.358.221.8.471,1.193.286a1.241,1.241,0,0,0,.4-.388,14.04,14.04,0,0,0,1.694-2.946,1.134,1.134,0,0,0,.125-.477c0-.382-.34-.662-.656-.883a24.309,24.309,0,0,0-5.421-2.577,11.187,11.187,0,0,0-4.891-.966,4.664,4.664,0,0,0-3.262,1.658c-1.193,1.533.805,2,2.058,2.553C413.4,499.181,416.536,499.945,419.261,501.6Z" transform="translate(-171.314 -251.56)" fill="#4f68c4"/>
    <path id="Path_320" data-name="Path 320" d="M423.674,520.338a.877.877,0,0,0,.25.752c.173-.847-.054-1.742.125-2.594.262-1.282,1.509-2.249,1.616-3.537C423.381,514.511,423.691,518.955,423.674,520.338Z" transform="translate(-177.605 -260.156)" opacity="0.1"/>
    <path id="Path_321" data-name="Path 321" d="M572,358.04v5.875l-24.25,1.473-.734-5.881Z" transform="translate(-220.775 -144.498)" opacity="0.2"/>
    <path id="Path_322" data-name="Path 322" d="M417.888,452.181c1.515-1.235.638-3.823,1.664-5.481a5.325,5.325,0,0,1,2.594-1.789,11.8,11.8,0,0,1,3.787-1.05,4.4,4.4,0,0,1,3.578,1.318c.388.441.65.978,1.014,1.437a3.877,3.877,0,0,0,3.757,1.3c.793-.179,1.616-.781,1.563-1.593a2.248,2.248,0,0,0-.716-1.276l-1.706-1.891c-1.938-2.147-4.091-4.425-6.936-4.962a11.9,11.9,0,0,0-5.916.793c-.769.256-1.634.638-1.849,1.419-.143.537.072,1.121-.054,1.664-.245,1.079-1.628,1.443-2.272,2.35s-.447,1.98-.632,2.982a26.073,26.073,0,0,0-.787,3.018c-.042.626.274,1.789.978,2.016S417.453,451.436,417.888,452.181Z" transform="translate(-174.098 -229.138)" fill="#3f3d56"/>
    <path id="Path_323" data-name="Path 323" d="M434.924,442.152a17.893,17.893,0,0,0-3.173-7.252,12.71,12.71,0,0,0-5.648-4.485,8.087,8.087,0,0,0-7.032.555,10.211,10.211,0,0,0-3.513,4.431c-1.545,3.328-2.117,7.4-.322,10.592.716-.871,1.944-.477,3.03-.793a31.588,31.588,0,0,0,3.805-1.861C425.978,441.615,430.749,443.011,434.924,442.152Z" transform="translate(-173.754 -225.825)" fill="#fed253"/>
    <path id="Path_324" data-name="Path 324" d="M417.407,447.976c-.137-1.074-.227-2.32.537-3.083a.388.388,0,0,1,.316-.143.411.411,0,0,1,.245.215,13.351,13.351,0,0,1,1.121,2.195,2.278,2.278,0,0,0-2.386.924" transform="translate(-175.012 -231.834)" opacity="0.1"/>
    <path id="Path_325" data-name="Path 325" d="M440.7,443.074l-.215-2.129a.972.972,0,0,1,.042-.525.674.674,0,0,1,.871-.239,1.789,1.789,0,0,1,.7.7,12.526,12.526,0,0,1,1.229,2.427,7.216,7.216,0,0,0-2.9.036" transform="translate(-184.367 -229.961)" opacity="0.1"/>
    <path id="Path_326" data-name="Path 326" d="M421.344,502.21v4.867l-4.109.274H395.62V502.21Z" transform="translate(-159.672 -202.682)" opacity="0.1"/>
    <path id="Path_327" data-name="Path 327" d="M375.1,445.027v5.141H349.378l-68.338-85.6V360.52h14.326Z" transform="translate(-113.43 -145.499)" fill="#f1c0c0"/>
    <path id="Path_328" data-name="Path 328" d="M375.1,445.027v5.141H349.378l-68.338-85.6V360.52h14.326Z" transform="translate(-113.43 -145.499)" opacity="0.1"/>
    <path id="Path_329" data-name="Path 329" d="M375.1,445.027v5.141H349.378l-68.338-85.6V360.52l68.708,84.507Z" transform="translate(-113.43 -145.499)" opacity="0.1"/>
    <path id="Path_330" data-name="Path 330" d="M302.328,731.1a1.789,1.789,0,0,1-1.563,2.105,10.628,10.628,0,0,0-4.592,2.386c-1.175,1.27-1.408,3.626,0,4.658a4.528,4.528,0,0,0,2.386.65,16.165,16.165,0,0,0,7.968-1c1.753-.811,3.406-2.195,5.332-2.07,1,.06,2.058.525,2.946.072s1.139-1.718,1.145-2.773a20.535,20.535,0,0,0-.984-6.495c-.089-.286-3.883-.507-4.336-.6l-4.6-.6c-.871-.113-2.749-.769-3.435-.042S302.328,730.234,302.328,731.1Z" transform="translate(-125.76 -345.77)" fill="#4f68c4"/>
    <path id="Path_331" data-name="Path 331" d="M353.052,702.877a14.4,14.4,0,0,0,.942,3.125c.638,1.622,1.455,3.346,3.018,4.133a5.387,5.387,0,0,0,4.6-.221,3.793,3.793,0,0,0,1.533-1.163,4.617,4.617,0,0,0,.6-2.678,14.629,14.629,0,0,0-1.193-6.745c-.907-1.789-2.487-3.328-2.511-5.308l-5.433,1.05a1.55,1.55,0,0,0-.8.316,1.377,1.377,0,0,0-.346.65A17.755,17.755,0,0,0,353.052,702.877Z" transform="translate(-149.043 -332.435)" fill="#4f68c4"/>
    <path id="Path_332" data-name="Path 332" d="M244.3,607.2a8.878,8.878,0,0,0,.871,5.636,4.362,4.362,0,0,0,4.938,2.093.722.722,0,0,0,.447-.34.841.841,0,0,0-.078-.6,8.8,8.8,0,0,1,.185-6.632c.119-.274.376-.6.656-.489a.6.6,0,0,1,.268.274,3.119,3.119,0,0,1,.418,1.646,6.121,6.121,0,0,0-.048,1.581c.113.513.662,1,1.139.775a1.193,1.193,0,0,0,.543-.769c1.33-3.847.728-8.052.119-12.078a.632.632,0,0,0-.71-.662c-2.815-.28-4.354-.954-5.964,1.664C245.7,601.515,244.3,604.551,244.3,607.2Z" transform="translate(-105.176 -293.423)" fill="#4f68c4"/>
    <path id="Path_333" data-name="Path 333" d="M298.38,596.3a36.574,36.574,0,0,0-1.229,17.189l.626,5.165c.215,1.742.423,3.477.728,5.2a13.807,13.807,0,0,1,.316,2.7,14.47,14.47,0,0,1-.423,2.654,31.012,31.012,0,0,0-.626,5.547c-.066,2.982.3,5.964.537,8.946a99.632,99.632,0,0,1-.209,17.845,6.692,6.692,0,0,0,.978,4.6,5.915,5.915,0,0,1,.865,1.419c.447,1.366-.6,2.732-.865,4.133a4.175,4.175,0,0,0,3.471,4.771c4.771.567,9.674.31,13.974,2.493.453-1.324-.537-2.827-.083-4.175.286-.835,1.074-1.378,1.61-2.081a6.06,6.06,0,0,0,1.026-3.638,13.3,13.3,0,0,0-.883-4.932A10.669,10.669,0,0,1,317,660.124a5.071,5.071,0,0,0-.036-2.058,3.215,3.215,0,0,0-.769-.96,12.125,12.125,0,0,1-3.119-7.068,32.553,32.553,0,0,1,.25-7.837c.292-2.469.686-5.076,2.254-7a44.928,44.928,0,0,1,1.258-17.445c.155-.525.4-1.133.936-1.258a1.336,1.336,0,0,1,1.145.453,7.818,7.818,0,0,1,1.789,3.364,7.335,7.335,0,0,1,.561,4.074c-.143.6-.429,1.121-.6,1.694a5.022,5.022,0,0,0,.179,3.5,3.364,3.364,0,0,1,.429,1.318,3.65,3.65,0,0,1-.358,1.145,5.272,5.272,0,0,0,.5,4.264,15.441,15.441,0,0,0,2.785,3.417,12.524,12.524,0,0,0,.388,6.895.871.871,0,0,1,.078.662c-.107.227-.382.31-.6.471-.6.489-.227,1.414.173,2.052a47.042,47.042,0,0,0,3.62,5.022c1.193,1.425,1.085,4.175,2.863,4.688a5.367,5.367,0,0,0,2.266,0c1.753-.268,3.71-.775,4.569-2.326a6.261,6.261,0,0,1,1.044-1.891c.549-.477,1.258-.561,1.563-1.133s-.036-1.324.066-1.986.68-1.193.865-1.891c.441-1.61-1.437-2.934-1.694-4.581-.37-2.386,2.636-4.175,2.511-6.561-.262-5.183-.429-10.39-.7-15.573a112.293,112.293,0,0,1-.143-13.95c.209-2.893.6-5.922-.465-8.612-1.527-3.793-5.738-5.922-9.811-6.328s-8.135.561-12.173,1.193a76.94,76.94,0,0,1-20.248.423Z" transform="translate(-126.344 -292.306)" fill="#3f3d56"/>
    <circle id="Ellipse_84" data-name="Ellipse 84" cx="9.555" cy="9.555" r="9.555" transform="translate(174.588 227.88)" fill="#fbbebe"/>
    <path id="Path_334" data-name="Path 334" d="M310.64,500.8a4.074,4.074,0,0,1-3.895,2.463c-.346,1.431.483,2.875,1.431,4a16.986,16.986,0,0,0,16.258,5.576,8.023,8.023,0,0,0,3.2-1.336,7.1,7.1,0,0,0,2.445-4.235,21.053,21.053,0,0,0,.233-4.98,1.288,1.288,0,0,0-.262-.918,1.312,1.312,0,0,0-.835-.274c-2.016-.179-4.121-.256-5.893-1.247s-3.03-3.227-2.177-5.064c-.137.286-3.62.423-4.08.483-1.437.2-2.875.429-4.306.692a7.828,7.828,0,0,0-2.022.382c-.865.447-.543.227-.34,1.038C310.706,498.625,311.153,499.514,310.64,500.8Z" transform="translate(-130.387 -252.029)" fill="#fbbebe"/>
    <path id="Path_335" data-name="Path 335" d="M294.392,509.9a15.823,15.823,0,0,1-3.823-.423,5.368,5.368,0,0,1-3.137-2.093c-.441-.668-.728-1.509-1.431-1.885-1.151-.6-2.463.412-3.382,1.336a12.286,12.286,0,0,1-2.875,2.314c-1.276.674-2.767.913-3.972,1.706a9.985,9.985,0,0,0-2.386,2.577l-8.451,11.511c-3.394,4.628-6.346,9.6-9.37,14.481-2.618,4.229-3.99,9.1-5.964,13.658a1.527,1.527,0,0,0-.185.918c.072.31.447.561.71.382-.889.883-.107,2.386-.316,3.626a4.45,4.45,0,0,1-1.419,2.225,11.214,11.214,0,0,1,3.936.185,12.066,12.066,0,0,1,3.722,1.789c.722-.113.656-1.4,1.193-1.873.322-.28.8-.245,1.223-.328,1.592-.31,2.225-2.225,3.447-3.3,1.02-.9,2.463-1.193,3.543-2.04,1.753-1.378,2.129-3.829,3.048-5.863.781-1.724,2.01-3.227,2.7-4.992a21.5,21.5,0,0,1,1.3-3.441c1.02-1.706,2.94-2.612,4.771-3.429a7.9,7.9,0,0,1,3.632-.972c-.066,2.773-.417,5.5.185,8.213.209.954.5,1.885.751,2.833a53.346,53.346,0,0,1,1.461,13.121,39.922,39.922,0,0,1,8.35-1c2.213-.066,4.419.221,6.632.179,2.624-.048,5.219-.555,7.843-.734a14.65,14.65,0,0,1,7.688,1.193,73.037,73.037,0,0,1,.316-11.332l.632-5.928a36.424,36.424,0,0,1,.793-5.117c.346-1.36.847-2.672,1.229-4.026,1.342-4.771,1.1-9.865.841-14.833a18.7,18.7,0,0,0-2.272-7.336,19.859,19.859,0,0,0-1.431-2.433A14.093,14.093,0,0,0,301.6,502.98a2.493,2.493,0,0,0-.883.191,2.94,2.94,0,0,0-1.127,1.342A14.612,14.612,0,0,1,294.392,509.9Z" transform="translate(-106.868 -255.323)" fill="#3f3d56"/>
    <path id="Path_336" data-name="Path 336" d="M303.781,481.225c.268-.6.99-.817,1.431-1.294.847-.907.465-2.356.6-3.579a5.141,5.141,0,0,1,3.4-3.924,10.986,10.986,0,0,1,5.368-.34,5.2,5.2,0,0,1,2.421.805c.31.227.6.519.889.728a2.386,2.386,0,0,0,3.245-.757c-2.111-2.541-4.449-5.225-7.658-6.006a15.706,15.706,0,0,0-3.346-.316,10.866,10.866,0,0,0-4.39.513,7.317,7.317,0,0,0-3.853,4.449,21.632,21.632,0,0,0-.936,5.964,22.47,22.47,0,0,0,0,4.056,11.213,11.213,0,0,0,1.992,5.111,1.545,1.545,0,0,0,.6.555C306.256,488.382,303.56,481.72,303.781,481.225Z" transform="translate(-128.042 -240.624)" fill="#3f3d56"/>
    <path id="Path_337" data-name="Path 337" d="M319.476,467.244c-.328-2.809-2.332-5.129-4.461-7a16.449,16.449,0,0,0-5.994-3.608,8.009,8.009,0,0,0-6.763.823,10.391,10.391,0,0,0-3.292,4.527,14.248,14.248,0,0,0-1.437,6.561,7.073,7.073,0,0,0,3.2,5.678,6.024,6.024,0,0,1,3.1-2,151.839,151.839,0,0,1,15.644-4.986Z" transform="translate(-126.697 -236.478)" fill="#fed253"/>
    <path id="Path_338" data-name="Path 338" d="M303.561,472.72c.191,0,.316.2.412.358a15.119,15.119,0,0,1,1.247,2.386c-.7.149-1.9.316-2.243-.3C302.792,474.855,303.012,472.69,303.561,472.72Z" transform="translate(-128.872 -243.122)" opacity="0.1"/>
    <path id="Path_339" data-name="Path 339" d="M326.58,468.467c-.143.137-.31-.143-.31-.346v-2.314a.34.34,0,0,1,.042-.185.28.28,0,0,1,.2-.1c.483-.054.883.358,1.193.751a12.6,12.6,0,0,1,1.223,2.034l-2.523-.078" transform="translate(-138.298 -240.217)" opacity="0.1"/>
    <path id="Path_340" data-name="Path 340" d="M366.651,524.336A15.594,15.594,0,0,1,368.4,522.9c1.652-1.1,3.65-1.539,5.5-2.243s3.74-1.843,4.461-3.692a8.768,8.768,0,0,0,.346-3.579,3.578,3.578,0,0,0-.262-1.473,2.928,2.928,0,0,0-.942-1.026c-2.517-1.861-5.893-2.01-9.018-1.819a56.524,56.524,0,0,0-19.926,4.974,1.73,1.73,0,0,0-.835.6,1.706,1.706,0,0,0-.161.829,13.717,13.717,0,0,0,.674,5.195c.823,2.123,2.517,3.835,3.227,6,.322.972.429,2,.71,2.982a4.175,4.175,0,0,0,1.676,2.493c2.356,1.408,4.58-.483,6.215-1.95Z" transform="translate(-146.884 -257.766)" fill="#3f3d56"/>
    <path id="Path_341" data-name="Path 341" d="M313.388,529.294l-3.024-6.6a23.081,23.081,0,0,1-1.145-2.821c-.346-1.151-.513-2.344-.835-3.5-1.062-3.853-3.74-7.062-5.046-10.837a2.057,2.057,0,0,0-.489-.912,1.593,1.593,0,0,0-1.33-.239c-1.825.316-3.25,1.706-4.92,2.493-.775.358-1.61.6-2.386,1.008a2.982,2.982,0,0,0-1.6,1.9,4.651,4.651,0,0,0,.65,2.678c1.622,3.662,1.992,7.753,2.064,11.761.054,2.7-.083,5.588-1.676,7.753-3.06,4.175-1.1,10.306.042,15.358.137.6.3,1.241.394,1.873a17.218,17.218,0,0,1,.137,2.386,18.671,18.671,0,0,1-1.27,7.867,8.8,8.8,0,0,0,3.579,1.014q5.195.662,10.431.93a11.367,11.367,0,0,0,3.274-.167,5.964,5.964,0,0,0,4.408-5.845c.191,1.652.543,3.447,1.742,4.592s2.946,1.318,4.575,1.408a85.047,85.047,0,0,0,13.777-.388,2.385,2.385,0,0,0,.847-.2c.883-.441.93-1.658.859-2.636-.131-1.831-.268-3.662-.489-5.481a22.427,22.427,0,0,1-.286-3.507,20.173,20.173,0,0,1,.6-3.579,40.584,40.584,0,0,0,1.163-11.332,19.123,19.123,0,0,1-.113-2.8c.155-2.105,1.264-4.109,1.056-6.2-.6-6.155-1.08-12.471-2.8-18.411a4.772,4.772,0,0,0-1.628-2.809c-1.193-.8-2.869-.382-4.235-.889a10.591,10.591,0,0,1-1.819-1.08,8.351,8.351,0,0,0-4.109-1.264,3.488,3.488,0,0,0-2.982,1.085,4.33,4.33,0,0,0-.6,1.628c-.865,3.638-1.879,7.235-2.893,10.831l-.972,3.447-2.606,9.256C313.477,528.06,313.65,528.364,313.388,529.294Z" transform="translate(-124.474 -254.464)" fill="#4f68c4"/>
    <path id="Path_342" data-name="Path 342" d="M334.626,400.25l57.692,60.626v5.141H366.594L323.24,409.435" transform="translate(-130.461 -161.533)" fill="#f1c0c0"/>
    <path id="Path_343" data-name="Path 343" d="M334.626,400.25l57.692,60.626v5.141H366.594L323.24,409.435" transform="translate(-130.461 -161.533)" opacity="0.1"/>
    <path id="Path_344" data-name="Path 344" d="M324.158,414.31l.185.066,42.62,52.175h25.354v5.141H366.594L323.24,415.109Z" transform="translate(-130.461 -167.207)" opacity="0.1"/>
    <path id="Path_345" data-name="Path 345" d="M343.514,502.523c-2.087.913-4.408,2.082-5.034,4.276a2.141,2.141,0,0,0,2.111,2.869,7.157,7.157,0,0,0,2.869-.525l12.316-4.068c.334-.107.716-.268.8-.6a1.026,1.026,0,0,0-.119-.6c-.382-.93-.757-2.833-1.557-3.483-.656-.525-1.956-.34-2.749-.328C349.1,500.1,346.228,501.331,343.514,502.523Z" transform="translate(-143.179 -254.145)" fill="#4f68c4"/>
    <path id="Path_346" data-name="Path 346" d="M363.63,504.717a19.808,19.808,0,0,1,6.113.948,10.891,10.891,0,0,1,5.064,3.459,3.793,3.793,0,0,1,.8,1.563c.119.6,2.064.954,1.634,1.36,1.306-.209,1,.406,2.32.394a4.384,4.384,0,0,0,3.549-1.408,4.61,4.61,0,0,0,.7-2.917,4.968,4.968,0,0,0-.394-2.064c-.6-1.253-1.968-1.926-3.233-2.505l-10.652-4.873a7.075,7.075,0,0,0-1.968-.7,7.359,7.359,0,0,0-1.736.042l-4.825.555a7.234,7.234,0,0,1,3.3,6.364" transform="translate(-152.315 -253.303)" fill="#3f3d56"/>
  </g>
</svg>
