<svg xmlns="http://www.w3.org/2000/svg" xmlns:xlink="http://www.w3.org/1999/xlink" width="1920.633" height="1081.237" viewBox="0 0 1920.633 1081.237">
  <defs>
    <linearGradient id="linear-gradient" x1="0.719" y1="-0.339" x2="0.719" y2="0.661" gradientUnits="objectBoundingBox">
      <stop offset="0" stop-color="gray" stop-opacity="0.251"/>
      <stop offset="0.54" stop-color="gray" stop-opacity="0.122"/>
      <stop offset="1" stop-color="gray" stop-opacity="0.102"/>
    </linearGradient>
  </defs>
  <g id="Group_779" data-name="Group 779" transform="translate(0.639 1.234)">
    <path id="Subtraction_1" data-name="Subtraction 1" d="M20785.32,2389.122h-.021c-16.1,0-32.33-.4-48.25-1.183-12.738-.627-25.307-1.5-37.359-2.6-20.389-1.858-32.572-3.764-32.693-3.783l.633-900.555,1918.541.408,1.459,284.922c-.127-.125-15.141-14.705-40.795-35.991-15.1-12.531-30.939-24.953-47.074-36.92-20.146-14.94-40.8-29.194-61.375-42.363-52.375-33.515-104.592-60.277-155.2-79.543-14.625-5.567-29.312-10.575-43.652-14.883-15.094-4.533-30.215-8.415-44.943-11.537-15.447-3.275-30.891-5.8-45.9-7.519a433.1,433.1,0,0,0-46.539-2.829c-1.359-.008-2.742-.011-4.113-.011-111.773,0-212.326,25.065-307.4,76.629-10.275,5.572-20.666,11.559-30.885,17.793-9.8,5.978-19.732,12.366-29.531,18.986-18.441,12.461-36.559,25.8-55.393,40.792-16.6,13.212-33.328,27.371-51.145,43.287-14.629,13.071-30.225,27.55-47.674,44.264-16.787,16.077-33.205,34.966-50.2,57.746-14.113,18.924-28.705,40.62-45.92,68.275-7.18-6.129-14.705-12-22.367-17.448l-.025.057h-60.053l0-.051H21367.1l0,.051h-27c.355-.96.732-2.01,1.148-3.209h111.74a329.481,329.481,0,0,0-68.768-36.195l0-.04c-1.146-.444-2.332-.891-3.523-1.326l0,.1a.062.062,0,0,0-.018-.006.064.064,0,0,1-.018-.005,320.675,320.675,0,0,0-34.074-10.487,62.833,62.833,0,0,0-61-50.3h-.557a62.034,62.034,0,0,0-15.994,2.095,62.718,62.718,0,0,0-14.5,5.9,22.4,22.4,0,0,1-44.709,0,62.739,62.739,0,0,0-14.5-5.9,62.031,62.031,0,0,0-15.992-2.095h-.555a62.382,62.382,0,0,0-24.5,5.2,207.836,207.836,0,0,0-51.732-28.791,217.4,217.4,0,0,0-57.715-13.515v121.209c-.328-.216-.723-.471-1.141-.74l-.182-.118a21.1,21.1,0,0,1-2.371-1.619,18.018,18.018,0,0,0-12.582-.958c-.508.145-1.045.325-1.645.55l0-119.276c-.693-.007-1.434-.012-2.2-.012a206.485,206.485,0,0,0-49.926,6.134,218.066,218.066,0,0,0-29.67,9.8,242.225,242.225,0,0,0-28,13.734,292.194,292.194,0,0,0-50.623,37.069l0,69.567h8.043l0,3.157h-8.047l0,15.425h-.012l0,92.242h90.385l-1.537,3.158h-88.84l0,102.378h19.188c-.984.962-1.949,1.963-2.869,2.976l-.17.187h-16.15l0,27.544c-1.068,2.921-1.986,5.856-2.732,8.724v-62.662h-4.639l0,21.955a69.113,69.113,0,0,0-10.559-15.113v-85.984h-75.111c-.041.609-.082,1.231-.119,1.834-.016.244-.031.486-.049.726-.1,1.641-.221,3.5-.365,5.292a21.709,21.709,0,0,0-.105,2.171c-.057,1.047-.127,2.423-.174,3.781-.187,4.529-.338,9.115-.443,13.633-.016.711-.031,1.336-.047,1.91l0,.1c-.027,1.1-.057,2.228-.057,3.345-.135,7.7-.2,14.442-.2,20.617v5.918c0,5.838.049,12.76.414,19.845a178.686,178.686,0,0,0,2.02,19.683,93.909,93.909,0,0,0-10.734-1.213s0,.007,0,.017a.259.259,0,0,0-.025-.017l.027.022a99.492,99.492,0,0,0,5.428,11.5c2.051,3.791,4.324,7.529,6.752,11.11a122.062,122.062,0,0,0,9.686,12.488,109.562,109.562,0,0,0,8.066,13c.148.185.289.376.418.555.045.062.09.125.137.187,1.3,1.775,2.621,3.478,3.912,5.063l1.287,1.485c1.008,1.194,2.092,2.418,3.514,3.968.18.167.354.345.516.512.074.077.15.154.227.231a123.1,123.1,0,0,0,27.33,21.8,6.664,6.664,0,0,0-.869,3.685l.3,4.705v.051h-.064l.412,6.638h.063l.17,2.738v.029h-.051l.414,6.649h.051l.15,2.749v.023h-.031l.408,6.638h.035l4.619,75.593c.023.356.061.716.115,1.071-13.721.809-25.469,2.253-33.977,4.177-8.689,1.965-13.283,4.283-13.283,6.7,0,1.563,1.9,3.079,5.664,4.507a82.839,82.839,0,0,0,15.453,3.681c13.619,2.188,31.727,3.393,50.986,3.393s37.373-1.205,50.992-3.393a82.826,82.826,0,0,0,15.455-3.681c3.76-1.428,5.668-2.945,5.668-4.507,0-2.419-4.6-4.736-13.3-6.7-8.51-1.923-20.266-3.367-33.994-4.177.047-.322.084-.681.109-1.071l4.674-75.542.414-6.661.182-2.766.41-6.661.1-1.638c.24,0,.508-.02.814-.045h.211a10,10,0,0,0,1.16-.063h.369q.111,0,.223,0a7.1,7.1,0,0,0,.877-.054h.254l2.479-.193c.65-.059,1.33-.135,1.93-.2l.535-.059,1.689-.2a148.633,148.633,0,0,0,20.316-4.32c7.689-2.147,15.42-4.777,22.9-7.32l.012,0c7.07-2.4,14.381-4.891,21.648-6.967a150.355,150.355,0,0,1,20.941-4.49c-.008,8.883-.08,16.534-.109,19.411,0,.134,0,.207,0,.214l-.277,5.062a2.157,2.157,0,0,0,.066.442l-.066,1.174.2.108a14.118,14.118,0,0,1-.2,4.818c-.686,2.193-.973,8.432-.975,8.492s-1.4,9.023-2.447,18.608c-.613,5.667-.992,10.477-1.125,14.295-.166,4.783.055,8.031.652,9.653,2.389,6.47,4.463,13.535,4.854,14.885l.012.035,0,.014a36.109,36.109,0,0,1,1.053,4.609c.33,2.194.441,4.969-.924,5.733-.473.266-1.092.561-1.811.9l-.041.02c-3.193,1.521-8.018,3.82-6.756,6.844,1.523,3.7,7.473,13.817,7.531,13.917l-.061.743-.6,6.519a99.83,99.83,0,0,0-17.881,3.844c-4.389,1.525-6.613,3.157-6.613,4.852,0,1.563,1.906,3.08,5.664,4.507a82.9,82.9,0,0,0,15.453,3.681c13.621,2.188,31.729,3.393,50.988,3.393s37.371-1.2,50.992-3.393a82.82,82.82,0,0,0,15.453-3.681c3.76-1.427,5.664-2.944,5.664-4.507,0-.957-.725-1.907-2.154-2.823a25.677,25.677,0,0,0-6.125-2.573c-.3-2.008-2.225-5.9-11.723-9.4a39.41,39.41,0,0,1-4.77-3.919,21.653,21.653,0,0,1-3.252-3.878,7.834,7.834,0,0,1-1.42-4.249h.014l-.006-.015c-.379-1.4-3.664-13.735-2.211-14.786.791-.575-.084-4.97-.955-8.557-.787-3.235-1.719-6.426-2.082-7.648-.014-.047-.021-.073-.021-.075-.023-.213-2.629-25.48-2.768-27.238a15.494,15.494,0,0,1,.684-4.518l-.684-13.957c0-.042-.129-4.662,0-6.15-.016-.851-.068-1.728-.152-2.608a373.41,373.41,0,0,0,44.186,28.724c8.357,4.64,16.957,9.008,25.561,12.981,1.328.621,2.631,1.211,3.617,1.655h.012a408.815,408.815,0,0,0,59.381,21.343c-5.553,4.359-11.221,8.665-16.85,12.8a470.1,470.1,0,0,1-48.988,31.432,527.431,527.431,0,0,1-51.461,25.095c-16.84,7.127-34.619,13.661-52.842,19.419-17.068,5.393-34.947,10.24-53.141,14.405-16.918,3.875-34.529,7.257-52.344,10.052-16.414,2.577-33.393,4.717-50.465,6.362C20846.668,2387.677,20816.076,2389.122,20785.32,2389.122Zm-8.779-422.718v.612c-.18,1.184-.357,2.431-.527,3.707-.133.935-.252,1.829-.355,2.659-.078.62-.162,1.309-.25,2.048l-.064.551c-.023.2-.049.406-.072.609-.08.621-.15,1.248-.217,1.833-.055.491-.1.934-.156,1.381-.092.778-.174,1.59-.25,2.355l-.086.876c-.061.556-.115,1.141-.168,1.707l-.027.295c-.02.188-.035.372-.053.55-.021.235-.043.462-.062.68-.105,1.032-.2,2.027-.268,2.959-.051.531-.1,1.109-.156,1.873l-.055.672c0,.056-.01.113-.016.169s-.01.106-.014.159l0,.035a5.217,5.217,0,0,0-.043.578h74.875v-107.65l-43.168.04a205.981,205.981,0,0,0-13.971,26.9,200.71,200.71,0,0,0-9.295,27.386,258.775,258.775,0,0,0-5.51,27.012Zm72.031-136.575c-6.754,7.108-13.24,14.476-19.285,21.9a312.258,312.258,0,0,0-21.916,30.163h41.2Zm163.254,472.16h0c-1.156-3.255-2.314-6.185-2.533-6.74l-.225-.567-.018-.051a37.582,37.582,0,0,0,4.418-6.022,25.887,25.887,0,0,0,2.553-5.692,13.663,13.663,0,0,0,.5-6.239l-.008-.005-.047-.029c0-.038-.012-.076-.018-.112l0-.03-.01-.054-.01-.053-.008,0c-.453-.27-4.479-2.705-6.412-5.216-1.018-1.479-1.066-2.7-.143-3.622,3.23-3.237,9.059-12.43,9.117-12.522v-.247c.045-5.8.248-34.993,0-39.65a43.349,43.349,0,0,1,.51-10.776c.1-.507.221-1.035.369-1.57a92.08,92.08,0,0,0,13.7,1.062h.479l.566,0c1.328,0,2.686-.035,4.037-.1.025.6.047,1.1.074,1.576h.039c.674,15.268,1.232,25.111,1.654,29.256.809,7.995,5.271,29.485,5.314,29.67a.053.053,0,0,0-.018.011.033.033,0,0,1-.014.011,8.551,8.551,0,0,0-3.242,5.521,12.642,12.642,0,0,0,.486,5.755,27.332,27.332,0,0,0,4.264,8.038v.01c0,.517.014,5.07-.68,5.71a.066.066,0,0,0-.023.051l-.016.011a62.425,62.425,0,0,0-1.717,7.188h-.008a20.336,20.336,0,0,0-.32,4.915c-3.1-.063-6.238-.1-9.338-.1C21027.09,2301.371,21019.26,2301.579,21011.826,2301.989Zm65.936-15.877h-1.113v-.011c.145-.007.293-.01.443-.01.217,0,.443.007.67.02Zm198.225-87.892v-46.583h0l0-32.334h-.008l0-17.885h-.029v-.005h-47.137c-.008-.043-.02-.088-.031-.132s-.018-.063-.025-.092c-.074-.31-.176-.664-.324-1.145l.018.065c-.012-.033-.021-.065-.031-.1.021.077.045.158.068.241l.008.025a.018.018,0,0,0,0,.009c.084.309.168.628.25.94l.049.186h-146.52c.057-.59.16-1.783.2-3.163h193.5l0-13.633h0l0-32.329h-.008l0-34.693h0l0-21.723h-30.363c1.109-.884,2.395-1.916,3.934-3.158h26.428l0-7.449h-.008l0-15.413c6.289-5.811,12.326-11.693,17.939-17.483l0,40.344h121.451c-.369.762-.8,1.676-1.48,3.158h-119.973l0,102.378h.146l0,3.123h-.146l0,77.38c-5.918,6.643-11.953,13.192-17.941,19.466Zm-409.482-26.13h-2.734l0-28.412c.926-.275,1.818-.559,2.73-.867l0,29.278Zm-7.373,0h-10.559v-9.41c4.621.839,8.293,1.243,10.561,1.434l0,7.975Zm0-13.218a129.964,129.964,0,0,0-10.557-18.278v-39.177h-49.289c-3.072-1.171-6.244-2.237-9.428-3.168h53.508a70.418,70.418,0,0,0,15.77,3.634l0,56.989Zm125.289-57.46h-69.068c.535-1.088,1.023-2.122,1.488-3.163h67.621c-.037.983-.051,2.047-.041,3.162Zm234.33-105.541h-121.957a5.994,5.994,0,0,0-1.266-2.149,4.479,4.479,0,0,1-.8-1.009h120.1c1.219.986,2.467,1.989,3.928,3.156Zm-173.877-59.913h0c-.172-.006-.277-.006-.277-.006-.373-2.185-.652-4.437-.828-6.695.434-.275.785-.511,1.105-.743l0,7.442Zm232.8-12.08h0l-.021-.028a11.539,11.539,0,0,1-1.662-.119l0-5.482h-.008l0-19.064a12.777,12.777,0,0,1,1.676-.114,12.585,12.585,0,0,1,2.619.278,12.4,12.4,0,0,1-2.607,24.529Zm-29.357-38.819h-7.461a4.09,4.09,0,0,1,3.65-2.364h.08a4.145,4.145,0,0,1,3.729,2.362Zm-25.963,0h-8.4l-.525-3.163h8.4l.525,3.162Zm-15.617,0h-8.068l.684-3.163h8.029l-.645,3.162Zm-82.5,0h-60.1c.18-.533.412-1.239.592-1.978a10.322,10.322,0,0,0,.221-1.185h58.164c.324.96.691,1.994,1.123,3.162Zm-125.387,0h-91.232l0-.023h.029l0-3.14h92.766c-.445.851-1.025,1.978-1.557,3.163Z" transform="translate(-20667.635 -1481)" fill="#f2f1fd" opacity="0.6"/>
    <path id="Path_281" data-name="Path 281" d="M-19565.363-1481.31s-166.687,142.852-314.314,174.855-377.869-59.619-511.02-49.553S-20667-1212.9-20667-1212.9v-269.338Z" transform="translate(20667 1481)" fill="#eae9f5"/>
    <path id="Path_282" data-name="Path 282" d="M-20453.01-420.556l.65-94.224s119.529-26.791,405.438-8.255S-19524-420.559-19524-420.559Z" transform="translate(20452.998 1500.559)" fill="#ecebf8"/>
    <g id="final" transform="translate(95.451 264.588)">
      <ellipse id="Ellipse_61" data-name="Ellipse 61" cx="72.11" cy="11.582" rx="72.11" ry="11.582" transform="translate(199.903 555.782)" fill="#6c63ff" opacity="0.1"/>
      <ellipse id="Ellipse_62" data-name="Ellipse 62" cx="89.982" cy="11.582" rx="89.982" ry="11.582" transform="translate(574.013 556.108)" fill="#6c63ff" opacity="0.1"/>
      <path id="Path_158" data-name="Path 158" d="M13.289,338.2H88.4V440.571H18.787c-.185,1.051-.363,2.109-.555,3.167H88.4V526.3a1.077,1.077,0,0,1-.355-.126c-1.983-.784-3.952-1.613-5.92-2.5l-1.258-.57q-2.96-1.4-5.92-2.96c-.688-.363-1.376-.74-2.057-1.125a123.16,123.16,0,0,1-29.513-23.06c-.252-.244-.488-.5-.74-.74-1.2-1.3-2.376-2.62-3.515-3.967l-1.288-1.487c-1.347-1.65-2.649-3.345-3.915-5.062-.185-.252-.363-.5-.555-.74A110.178,110.178,0,0,1,20.63,460.944c-.1-.244-.192-.511-.289-.74q-1.525-3.922-2.7-7.919c-.34-1.117-.666-2.22-.947-3.382-.1-.34-.192-.673-.274-1.006-4.2-16.407-4.7-33.45-4.7-50.375V391.6c0-6.845.081-13.735.2-20.618,0-1.784.074-3.56.111-5.351q.155-6.816.444-13.632c.044-1.265.1-2.524.17-3.782a21.4,21.4,0,0,1,.111-2.174C12.963,343.417,13.111,340.8,13.289,338.2Z" transform="translate(-2.912 -87.91)" fill="#6c63ff" opacity="0.1"/>
      <path id="Path_159" data-name="Path 159" d="M100.859,165.89H59.66a312.3,312.3,0,0,1,21.913-30.164c6.12-7.519,12.581-14.845,19.286-21.905Z" transform="translate(-15.374 -29.582)" fill="#6c63ff" opacity="0.1"/>
      <path id="Path_160" data-name="Path 160" d="M89.031,188.46V296.107H14.16c0-.311.052-.629.074-.94.067-.851.133-1.7.207-2.546.081-.992.17-1.991.266-2.96s.2-2.154.311-3.227.215-2.161.34-3.234.237-2.146.37-3.212.252-2.146.392-3.212c.111-.888.229-1.769.348-2.657.17-1.251.348-2.509.54-3.752a3.464,3.464,0,0,1,.081-.555A255.984,255.984,0,0,1,22.6,242.787a199.872,199.872,0,0,1,9.288-27.382A205.551,205.551,0,0,1,45.864,188.5Z" transform="translate(-3.546 -48.985)" fill="#6c63ff" opacity="0.1"/>
      <path id="Path_161" data-name="Path 161" d="M139.56,250.273V352.651H299.98V250.273Zm0,105.538v87.918c.918.192,1.828.377,2.731.533,1.228.237,2.45.451,3.7.636.237,0,.481.074.74.1.488.081.992.148,1.48.215,1.236.17,2.464.311,3.7.422.585.059,1.177.111,1.769.155l1.428.111h0c.777.059,1.547.1,2.309.126.474,0,.947.044,1.436.059h5.277c.636,0,1.273,0,1.9-.059h.044a9.972,9.972,0,0,0,1.325-.059h.37a7.65,7.65,0,0,0,1.1-.052h.259l2.479-.192c.814-.074,1.635-.17,2.464-.259l1.687-.2a147.606,147.606,0,0,0,20.314-4.322c14.964-4.174,29.6-10.013,44.558-14.29,19.337-5.513,40.7-8.222,59.389-1.48V355.811ZM299.98,136.3V0a206.228,206.228,0,0,0-52.122,6.12c-40.629,10.205-77.069,32.362-108.3,60.61v69.565h8.052v3.16H139.56V247.113H299.98V139.458H180.67V136.3ZM506.032,90.282c-10.05-.355-20.041-3.537-29.077-8.451-17.28-9.4-31.082-23.911-46.5-36.159C398.407,20.162,358.666,4.769,317.9.951V136.3H546.912l.57-.6Zm20.9-3.7,22.12,24.274V80.217c-7.4.918-13.9,3.1-22.09,6.335ZM549.014,465.56V355.811H501.88c-.126-.466-.252-.94-.4-1.414.141.474.259.947.392,1.414H317.926v79.333c1.746,1.3,3.471,2.657,5.18,4.041h0c1.843,1.48,3.7,3.042,5.491,4.574l1.843,1.525c.881.74,1.769,1.48,2.664,2.176q2.664,2.161,5.38,4.263c.9.74,1.813,1.406,2.723,2.1a370.921,370.921,0,0,0,45.609,29.831q5.351,2.96,10.8,5.78c2.42,1.236,4.855,2.464,7.3,3.656q5.506,2.686,11.1,5.18h0a407.653,407.653,0,0,0,108.047,31.474q12.425,1.835,24.947,2.886V465.553h0Zm-231.087-326.1V247.113H549.043V139.458Zm0,110.815V352.651H549.043V250.273ZM566.982,80.062v34.175l28.233-30.978q-14.061-2.265-28.233-3.234Zm0,170.211V352.651h224.79V250.273ZM790.95,473.649l.792-117.875H566.982v178.07a403.109,403.109,0,0,0,43.441-.518h.252q10.361-.651,20.625-1.895h.155A379.825,379.825,0,0,0,737.43,503.155Zm44.166-206.5c-.844-1.991-1.724-3.967-2.62-5.92-1.673-3.7-3.441-7.3-5.262-10.893H809.7V352.651h44.336c0-28.98-7.356-58.582-18.9-85.557ZM809.7,355.87V457.257a145.238,145.238,0,0,0,30.646-41.332c9.14-18.856,13.321-39.274,13.661-60.07Zm0-135.37v26.642h15.9A288.621,288.621,0,0,0,809.718,220.5ZM657.246,100.169c-1.169-.444-2.339-.9-3.515-1.332A320.918,320.918,0,0,0,615.737,87.4l-43.2,47.415h0l-.829.881.555.607H726.048a328.888,328.888,0,0,0-68.78-36.2Zm73.309,39.348H570.135l-3.153,2.886V247.113H791.8v-50.73a320.293,320.293,0,0,0-61.224-56.925Z" transform="translate(-36.144 0.01)" fill="#6c63ff" opacity="0.1"/>
      <path id="Path_162" data-name="Path 162" d="M89.031,261.83v53.35H14.16c0-.311.052-.629.074-.94.067-.851.133-1.7.207-2.546.081-.992.17-1.991.266-2.96s.2-2.154.311-3.227.215-2.161.34-3.234.237-2.146.37-3.212.252-2.146.392-3.212c.111-.888.229-1.769.348-2.657.17-1.251.348-2.509.54-3.752a3.464,3.464,0,0,1,.081-.555A255.986,255.986,0,0,1,22.6,261.86Z" transform="translate(-3.546 -68.057)" fill="#6c63ff" opacity="0.1"/>
      <path id="Path_163" data-name="Path 163" d="M13.289,338.2H88.4V440.571H18.787c-.185,1.051-.363,2.109-.555,3.167H88.4V526.3a1.077,1.077,0,0,1-.355-.126c-1.983-.784-3.952-1.613-5.92-2.5l-1.258-.57q-2.96-1.4-5.92-2.96c-.688-.363-1.376-.74-2.057-1.125a123.16,123.16,0,0,1-29.513-23.06c-.252-.244-.488-.5-.74-.74-1.2-1.3-2.376-2.62-3.515-3.967l-1.288-1.487c-1.347-1.65-2.649-3.345-3.915-5.062-.185-.252-.363-.5-.555-.74A110.178,110.178,0,0,1,20.63,460.944c-.1-.244-.192-.511-.289-.74q-1.525-3.922-2.7-7.919c-.34-1.117-.666-2.22-.947-3.382-.1-.34-.192-.673-.274-1.006-4.2-16.407-4.7-33.45-4.7-50.375V391.6c0-6.845.081-13.735.2-20.618,0-1.784.074-3.56.111-5.351q.155-6.816.444-13.632c.044-1.265.1-2.524.17-3.782a21.4,21.4,0,0,1,.111-2.174C12.963,343.417,13.111,340.8,13.289,338.2Z" transform="translate(-2.912 -87.91)" fill="#6c63ff" opacity="0.1"/>
      <path id="Path_164" data-name="Path 164" d="M196.04,198.32v92.24H139.56V198.32h8.052V167.09h33.051v31.23Z" transform="translate(-36.151 -43.437)" fill="#6c63ff" opacity="0.1"/>
      <rect id="Rectangle_963" data-name="Rectangle 963" width="56.466" height="102.371" transform="translate(103.423 250.283)" fill="#6c63ff" opacity="0.1"/>
      <path id="Path_165" data-name="Path 165" d="M139.56,480.81h56.473v85.105a147.357,147.357,0,0,1-20.314,4.315l-1.687.207c-.829.1-1.65.178-2.464.259s-1.658.141-2.479.192h-.259c-.355,0-.74.044-1.088.052h-.377c-.444,0-.888.044-1.332.059h0c-.629,0-1.258.044-1.9.052h-5.24L157.462,571c-.74,0-1.539-.081-2.309-.133h0l-1.421-.1-1.769-.163c-1.243-.111-2.479-.252-3.7-.422l-1.48-.207-.74-.1c-1.236-.192-2.457-.4-3.7-.636-.91-.155-1.813-.348-2.731-.533Z" transform="translate(-36.144 -124.982)" fill="#6c63ff" opacity="0.1"/>
      <rect id="Rectangle_964" data-name="Rectangle 964" width="46.564" height="103.126" transform="translate(466.336 143.99)" fill="#6c63ff" opacity="0.1"/>
      <path id="Path_166" data-name="Path 166" d="M611.7,338.2V440.578H380.58V396.42H503.687v26.05h61.454V338.2Z" transform="translate(-98.805 -87.917)" fill="#6c63ff" opacity="0.1"/>
      <path id="Path_167" data-name="Path 167" d="M612.427,590.078h-.74v67.159q-12.507-1.058-24.94-2.879a407.67,407.67,0,0,1-108.091-31.541q-14.9-6.7-29.187-14.638a372.437,372.437,0,0,1-45.646-29.831q-5.447-4.174-10.753-8.54c-2.45-2.02-4.884-4.093-7.349-6.105-1.71-1.384-3.434-2.746-5.18-4.048V480.314H564.509c-.126-.474-.252-.947-.385-1.414.141.466.274.94.4,1.414h47.163v109.72C611.938,590.04,612.182,590.063,612.427,590.078Z" transform="translate(-98.787 -124.485)" fill="#6c63ff" opacity="0.1"/>
      <path id="Path_168" data-name="Path 168" d="M846.342,170.99H816v-9.428h13.6V133.44q1.769.644,3.523,1.325v26.76h13.217Z" transform="translate(-211.986 -34.682)" fill="#6c63ff" opacity="0.1"/>
      <path id="Path_169" data-name="Path 169" d="M893.725,296.107H717.12V192.982h7.83v76.225h35.744V224.064h29.6v-35.6h30.342v35.633H850.2v45.143h43.537Z" transform="translate(-186.282 -48.985)" fill="#6c63ff" opacity="0.1"/>
      <path id="Path_170" data-name="Path 170" d="M717.32,413.94V516.318H893.955V413.94ZM941.865,636.828l.244-81.035H893.955V519.53H717.32V697.512a403.111,403.111,0,0,0,43.441-.518h.252q10.361-.651,20.625-1.894h.155a379.821,379.821,0,0,0,105.975-28.277Z" transform="translate(-186.334 -107.599)" fill="#6c63ff" opacity="0.1"/>
      <path id="Path_171" data-name="Path 171" d="M1048.238,480.81h41.2c-.363,20.788-4.536,41.206-13.669,60.062A145.282,145.282,0,0,1,1045.13,582.2V517.08h3.108Z" transform="translate(-271.549 -124.982)" fill="#6c63ff" opacity="0.1"/>
      <path id="Path_172" data-name="Path 172" d="M1090.521,446.477H1049.3V360.92h22.305C1083.172,387.895,1090.521,417.5,1090.521,446.477Z" transform="translate(-272.633 -93.816)" fill="#6c63ff" opacity="0.1"/>
      <rect id="Rectangle_965" data-name="Rectangle 965" width="24.947" height="32.333" transform="translate(487.96 172.659)" fill="#6c63ff" opacity="0.1"/>
      <rect id="Rectangle_966" data-name="Rectangle 966" width="24.947" height="7.445" transform="translate(487.96 239.678)" fill="#6c63ff" opacity="0.1"/>
      <rect id="Rectangle_967" data-name="Rectangle 967" width="24.947" height="21.72" transform="translate(487.96 250.283)" fill="#6c63ff" opacity="0.1"/>
      <rect id="Rectangle_968" data-name="Rectangle 968" width="24.947" height="32.333" transform="translate(487.96 306.697)" fill="#6c63ff" opacity="0.1"/>
      <rect id="Rectangle_969" data-name="Rectangle 969" width="24.947" height="32.333" transform="translate(487.96 373.715)" fill="#6c63ff" opacity="0.1"/>
      <path id="Path_173" data-name="Path 173" d="M684.12,620.354a4.114,4.114,0,0,1,.74.044h-.74v7.512H659.18V595.54h24.94Z" transform="translate(-171.22 -154.806)" fill="#6c63ff" opacity="0.1"/>
      <path id="Path_174" data-name="Path 174" d="M684.12,686.08v24.977q-12.507-1.058-24.94-2.879v-22.1Z" transform="translate(-171.22 -178.342)" fill="#6c63ff" opacity="0.1"/>
      <rect id="Rectangle_970" data-name="Rectangle 970" width="106.915" height="2.376" transform="translate(281.782 350.285)" fill="#6c63ff" opacity="0.1"/>
      <rect id="Rectangle_971" data-name="Rectangle 971" width="106.915" height="9.103" transform="translate(281.782 355.821)" fill="#6c63ff" opacity="0.1"/>
      <rect id="Rectangle_972" data-name="Rectangle 972" width="106.915" height="14.638" transform="translate(281.782 394.762)" fill="#6c63ff" opacity="0.1"/>
      <path id="Path_175" data-name="Path 175" d="M489.264,593.52v14.638H405.639q-5.447-4.159-10.76-8.54c-2.45-2.02-4.877-4.093-7.349-6.1Z" transform="translate(-100.604 -154.281)" fill="#6c63ff" opacity="0.1"/>
      <path id="Path_176" data-name="Path 176" d="M511.659,653.6v14.623h-8.8q-14.882-6.712-29.18-14.646Z" transform="translate(-122.999 -169.893)" fill="#6c63ff" opacity="0.1"/>
      <rect id="Rectangle_973" data-name="Rectangle 973" width="21.047" height="21.047" transform="translate(574.286 260.207)" fill="#6c63ff" opacity="0.1"/>
      <rect id="Rectangle_974" data-name="Rectangle 974" width="21.047" height="21.047" transform="translate(118.579 162.143)" fill="#6c63ff" opacity="0.1"/>
      <rect id="Rectangle_975" data-name="Rectangle 975" width="21.047" height="21.047" transform="translate(118.579 211.031)" fill="#6c63ff" opacity="0.1"/>
      <rect id="Rectangle_976" data-name="Rectangle 976" width="21.047" height="21.047" transform="translate(118.579 259.918)" fill="#6c63ff" opacity="0.1"/>
      <rect id="Rectangle_977" data-name="Rectangle 977" width="21.047" height="21.047" transform="translate(118.579 308.798)" fill="#6c63ff" opacity="0.1"/>
      <rect id="Rectangle_978" data-name="Rectangle 978" width="21.047" height="21.047" transform="translate(118.579 357.686)" fill="#6c63ff" opacity="0.1"/>
      <rect id="Rectangle_979" data-name="Rectangle 979" width="21.047" height="21.047" transform="translate(118.579 406.574)" fill="#6c63ff" opacity="0.1"/>
      <rect id="Rectangle_980" data-name="Rectangle 980" width="21.047" height="21.047" transform="translate(654.633 260.207)" fill="#6c63ff" opacity="0.1"/>
      <rect id="Rectangle_981" data-name="Rectangle 981" width="21.047" height="21.047" transform="translate(574.286 312.121)" fill="#6c63ff" opacity="0.1"/>
      <rect id="Rectangle_982" data-name="Rectangle 982" width="21.047" height="21.047" transform="translate(654.633 312.121)" fill="#6c63ff" opacity="0.1"/>
      <rect id="Rectangle_983" data-name="Rectangle 983" width="21.047" height="21.047" transform="translate(574.286 364.028)" fill="#6c63ff" opacity="0.1"/>
      <rect id="Rectangle_984" data-name="Rectangle 984" width="21.047" height="21.047" transform="translate(654.633 364.028)" fill="#6c63ff" opacity="0.1"/>
      <rect id="Rectangle_985" data-name="Rectangle 985" width="21.047" height="21.047" transform="translate(574.286 415.943)" fill="#6c63ff" opacity="0.1"/>
      <rect id="Rectangle_986" data-name="Rectangle 986" width="21.047" height="21.047" transform="translate(654.633 415.943)" fill="#6c63ff" opacity="0.1"/>
      <rect id="Rectangle_987" data-name="Rectangle 987" width="21.047" height="21.047" transform="translate(574.286 467.857)" fill="#6c63ff" opacity="0.1"/>
      <rect id="Rectangle_988" data-name="Rectangle 988" width="21.047" height="21.047" transform="translate(654.633 467.857)" fill="#6c63ff" opacity="0.1"/>
      <path id="Path_177" data-name="Path 177" d="M775.84,715.913V702.34h21.032v11.641Z" transform="translate(-201.554 -182.576)" fill="#6c63ff" opacity="0.1"/>
      <path id="Path_178" data-name="Path 178" d="M18,298.37v12.041H90.029V298.37Zm7.178,11.286H19.3V299.11h5.92Zm7.171,0h-5.92V299.11h5.92Zm7.156,0h-5.92V299.11h5.92Zm7.171,0h-5.92V299.11h5.92Zm7.164,0H47.92V299.11h5.92Zm7.171,0h-5.92V299.11h5.92Zm7.171,0h-5.92V299.11h5.92Zm7.164,0h-5.92V299.11h5.92Zm7.164,0H76.59V299.11h5.92Zm7.164,0h-5.92V299.11h5.92Z" transform="translate(-4.544 -77.556)" fill="#6c63ff" opacity="0.1"/>
      <path id="Path_179" data-name="Path 179" d="M18,345.71v12.055H90.029V345.71Zm7.178,11.278H19.3V346.472h5.92Zm7.171,0h-5.92V346.472h5.92Zm7.156,0h-5.92V346.472h5.92Zm7.171,0h-5.92V346.472h5.92Zm7.164,0H47.92V346.472h5.92Zm7.171,0h-5.92V346.472h5.92Zm7.171,0h-5.92V346.472h5.92Zm7.164,0h-5.92V346.472h5.92Zm7.164,0H76.59V346.472h5.92Zm7.164,0h-5.92V346.472h5.92Z" transform="translate(-4.544 -89.862)" fill="#6c63ff" opacity="0.1"/>
      <path id="Path_180" data-name="Path 180" d="M18,393.07v12.063H90.029V393.07Zm7.178,11.278H19.3V393.825h5.92Zm7.171,0h-5.92V393.825h5.92Zm7.156,0h-5.92V393.825h5.92Zm7.171,0h-5.92V393.825h5.92Zm7.164,0H47.92V393.825h5.92Zm7.171,0h-5.92V393.825h5.92Zm7.171,0h-5.92V393.825h5.92Zm7.164,0h-5.92V393.825h5.92Zm7.164,0H76.59V393.825h5.92Zm7.164,0h-5.92V393.825h5.92Z" transform="translate(-4.544 -102.173)" fill="#6c63ff" opacity="0.1"/>
      <path id="Path_181" data-name="Path 181" d="M18,440.43v12.026H90.029V440.43Zm7.178,11.278H19.3V441.177h5.92Zm7.171,0h-5.92V441.177h5.92Zm7.156,0h-5.92V441.177h5.92Zm7.171,0h-5.92V441.177h5.92Zm7.164,0H47.92V441.177h5.92Zm7.171,0h-5.92V441.177h5.92Zm7.171,0h-5.92V441.177h5.92Zm7.164,0h-5.92V441.177h5.92Zm7.164,0H76.59V441.177h5.92Zm7.164,0h-5.92V441.177h5.92Z" transform="translate(-4.544 -114.485)" fill="#6c63ff" opacity="0.1"/>
      <path id="Path_182" data-name="Path 182" d="M18.42,487.78c.289,1.132.614,2.265.955,3.382v-2.627H25.3v10.509H22.128c.1.244.192.511.289.74H90.138v-12Zm14.061,11.278h-5.92V488.535h5.92Zm7.156,0h-5.92V488.535h5.92Zm7.171,0h-5.92V488.535h5.92Zm7.164,0h-5.92V488.535h5.92Zm7.171,0h-5.92V488.535h5.92Zm7.171,0h-5.92V488.535h5.92Zm7.164,0h-5.92V488.535h5.92Zm7.164,0h-5.92V488.535h5.92Zm7.164,0h-5.92V488.535h5.92Z" transform="translate(-4.654 -126.793)" fill="#6c63ff" opacity="0.1"/>
      <path id="Path_183" data-name="Path 183" d="M41,535.14c.185.237.363.5.555.74H45.47v5.077c.422.5.836,1.006,1.265,1.48V535.85h5.92v10.561H50.273c.237.244.466.5.74.74H96.03V535.14Zm18.8,11.271h-5.92V535.895H59.8Zm7.171,0h-5.92V535.895h5.92Zm7.171,0h-5.92V535.895h5.92Zm7.164,0H75.39V535.895h5.92Zm7.164,0h-5.92V535.895h5.92Zm7.164,0h-5.92V535.895h5.92Z" transform="translate(-10.523 -139.105)" fill="#6c63ff" opacity="0.1"/>
      <path id="Path_184" data-name="Path 184" d="M94.41,582.487c.673.385,1.362.74,2.057,1.125v-.37h5.92v3.323l1.258.585v-3.915h5.92v6.4a1.849,1.849,0,0,0,.355.133V582.48Z" transform="translate(-24.407 -151.411)" fill="#6c63ff" opacity="0.1"/>
      <path id="Path_185" data-name="Path 185" d="M597.469,294.987ZM551.882,513.4ZM504.319,402.272c.141.474.259.947.392,1.413h0C504.608,403.219,504.467,402.745,504.319,402.272ZM597.469,294.965ZM150.48,184.15v3.16h33.058v-3.16ZM551.882,513.4ZM504.319,402.272c.141.474.259.947.392,1.413h0C504.608,403.219,504.467,402.745,504.319,402.272ZM597.469,294.965ZM551.882,513.361ZM504.319,402.272c.141.474.259.947.392,1.413h0C504.608,403.219,504.467,402.745,504.319,402.272Z" transform="translate(-38.983 -47.864)" fill="#6c63ff" opacity="0.1"/>
      <path id="Path_186" data-name="Path 186" d="M406.173,322.429s-2.916-.407-2.916-4.655-2.087-12.181-2.087-12.181h0s-1.806-13.817-4.3-16.007-5.7-15.053-5.7-15.053-.548-6.979-1.665-8.481-2.627-5.18-4.855-10.427-11.515-8.881-11.515-8.881S356.346,237,351.587,233.83h0a7.3,7.3,0,0,1-1.206-.91c-.829-1.088-4.44-1.11-4.44-1.11a72.756,72.756,0,0,1-.9-7.6,5.783,5.783,0,0,0,0-.8A25.606,25.606,0,0,0,356.3,209.445c.089-.281.163-.577.244-.858a2.4,2.4,0,0,0,1.48-1.3,27.147,27.147,0,0,1,.969-2.96c.622-1.051,1.806-1.613,2.738-2.405,2.353-2,2.96-5.365,2.849-8.429-.074-2.479-.474-4.98-.318-7.445l.044-.622c.044-.37.1-.74.163-1.1.363-1.835,1.154-3.567,1.6-5.388a6.93,6.93,0,0,0-.548-5.439c-1.48-2.3-4.677-2.76-7.452-3-3.145-.266-5.92.081-7.97-2.531a28.416,28.416,0,0,0-3.167-3.826c-.414-.385-4.44-2.842-4.44-3a17.991,17.991,0,0,0-12.581-.962c-2.087.607-4.055,1.6-6.172,2.094-4.566,1.08-9.82-.089-13.7,2.524-2.161,1.48-3.456,3.833-4.67,6.128q-1.48,2.834-3,5.661c-1.636,3.1-3.3,6.253-3.989,9.687a15.388,15.388,0,0,0-.266,2.265h0v1.206a3.977,3.977,0,0,0,.044.74,2.93,2.93,0,0,0,.059.459,7.142,7.142,0,0,1,.1.74c.044.237.133.651.222.977a1.383,1.383,0,0,0,.133.407c.074.252.163.5.259.74.052.126.1.259.163.385a6.926,6.926,0,0,0,.377.74c.059.1.1.2.163.3a9.819,9.819,0,0,0,.681.992c1.584,1.976,3.915,3.234,5.639,5.084v.829a25.332,25.332,0,0,0,11.53,20.721,4.7,4.7,0,0,0,.052.851,42.341,42.341,0,0,1-.081,6.594A3.108,3.108,0,0,0,315,229.2a3.542,3.542,0,0,0-.947.081l-.067-.052h0v.067c-1.628.4-3.634,2.094-5.55,6.912,0,0-5.832,6.572-10.272,6.3s-15.682,6.838-15.682,6.838-10.968,7.119-13.321,14.372a101.279,101.279,0,0,1-4.722,12.048l-13.558,27.937h0l-2.5,22.2s1.384,9.857,1.11,11.36,5.691,15.008,5.691,15.008,19.708,34.627,27.759,36.4l.577-.407a4.721,4.721,0,0,0,1.088.407l1.658-1.169a18.064,18.064,0,0,1-.126,3.907c-1.11,3.419.414,25.731,2.353,30.105s1.251,61.72,1.251,61.72l-.274,5.062a2.145,2.145,0,0,0,.067.444l-.067,1.177.2.1a14.252,14.252,0,0,1-.2,4.818c-.7,2.22-.977,8.5-.977,8.5s-5.543,35.433-2.916,42.553,4.862,14.919,4.862,14.919,2.775,8.881.133,10.361-10.153,4.063-8.607,7.763c1.406,3.419,6.742,12.581,7.534,13.92l-.067.74-1.088,11.789a14.8,14.8,0,0,0,1.251,4.5c1.191,2.568,3.508,5.232,7.911,4.944.74-.052,1.6-.141,2.427-.252,8.059-1.08,17.983-4.677,17.983-4.677a7.333,7.333,0,0,1-1.406-1.162h0a4.063,4.063,0,0,1-1.236-2.96c.118-2.146-3.9-12.373-4.9-14.89-.155-.363-.237-.57-.237-.57s9.162-9.576,7.637-18.065c0,0-10.139-5.92-6.8-9.169s9.3-12.581,9.3-12.581.274-34.893,0-40.1a43.138,43.138,0,0,1,.511-10.827c.111-.54.244-1.066.385-1.584a96.614,96.614,0,0,0,13.943,1.058c1.7,0,3.434,0,5.18-.1q0,.74.067,1.6c.385,8.644,1.1,23.8,1.687,29.432.829,8.074,5.41,29.831,5.41,29.831s-8.74,5.61,1.525,19.434c0,0,0,5.01-.681,5.735h0a62.74,62.74,0,0,0-1.754,7.223c-.429,2.6-.607,5.24.089,6.609,1.665,3.271,11.656,3,11.656,3h0l.244-.044a14.32,14.32,0,0,1,10.575,3.19c3.8,3.049,18.205,1.71,26.005.74,3.056-.385,5.1-.74,5.1-.74a2.962,2.962,0,0,0,.1-1.066h0c-.081-1.917-1.584-6.12-11.767-9.872,0,0-9.576-6.438-9.443-12.048H377.8a10.472,10.472,0,0,1,1.325,0s-3.752-13.691-2.22-14.8-3.056-16.281-3.056-16.281-2.627-25.458-2.768-27.241a15.54,15.54,0,0,1,.688-4.514l-.688-13.957s-.133-4.64,0-6.15a30.713,30.713,0,0,0-.318-3.915c-.067-.518-.133-1.058-.207-1.591,3.589-.91,5.92-1.754,5.92-1.754l-.414-48.584c3.049-5.92,3.611-18.908,3.6-28.122,0-5.92-.266-10.3-.266-10.3l4.166-6.8s.962-8.141-.562-9.924a1.708,1.708,0,0,1,.185-2.331,7.736,7.736,0,0,1,.91-.622s-.044-.067-.1-.163a7.354,7.354,0,0,1,.925-.659s-1.48-2.294-.155-3.264c1.243.844,2.353,1.48,3.2,2-.059.54-.118.851-.118.851l.355-.74,1.31.74s6.527-13,6.387-14.919,4.44-9.991,4.44-9.991.555-4.24,3.056-6.017,1.939-14.646,1.939-14.646.7-6.7,2.361-9.443S406.173,322.429,406.173,322.429Zm-124.891-5.676.126,3.1-1.273-2.05Z" transform="translate(-64.432 -41.449)" fill="url(#linear-gradient)"/>
      <path id="Path_187" data-name="Path 187" d="M433.509,448.278l-1.6,6.808s-12.8-6.535-15.112-14.8,3.863-11.456,3.863-11.456l11.93,5.055Z" transform="translate(-108.078 -111.469)" fill="#fff"/>
      <path id="Path_188" data-name="Path 188" d="M433.509,448.278l-1.6,6.808s-12.8-6.535-15.112-14.8,3.863-11.456,3.863-11.456l11.93,5.055Z" transform="translate(-108.078 -111.469)" opacity="0.1"/>
      <path id="Path_189" data-name="Path 189" d="M332.3,758.763s-11.841,4.352-19.981,4.9c-4.322.289-6.594-2.361-7.763-4.914a14.877,14.877,0,0,1-1.221-4.44l1.058-11.73.562-6.246,17.295-4.492,2.45,7.489.229.57c.984,2.5,4.929,12.677,4.81,14.8a4.041,4.041,0,0,0,1.214,2.96A7.036,7.036,0,0,0,332.3,758.763Z" transform="translate(-78.716 -190.237)" fill="#fff"/>
      <path id="Path_190" data-name="Path 190" d="M433.089,752.512a2.959,2.959,0,0,1-.1,1.058s-25.324,4.226-30.5,0a13.721,13.721,0,0,0-10.657-3.123s-9.8.266-11.434-2.96c-.681-1.354-.5-3.981-.081-6.572a62.594,62.594,0,0,1,1.717-7.186l.392-.311,2.331-1.872,27.293-.807h.207c-.133,5.58,9.265,11.981,9.265,11.981C431.5,746.422,432.971,750.6,433.089,752.512Z" transform="translate(-98.63 -189.951)" fill="#fff"/>
      <path id="Path_191" data-name="Path 191" d="M433.088,756.087a3.02,3.02,0,0,1-.111,1.058s-25.317,4.226-30.5,0a13.721,13.721,0,0,0-10.657-3.123s-9.806.266-11.434-2.96c-.681-1.362-.511-3.982-.089-6.572,3.774.377,9.732,1.317,12.07,3.56,3.537,3.412,9.532,6.816,13.21,7.082C408.466,755.317,425.687,755.865,433.088,756.087Z" transform="translate(-98.629 -193.526)" opacity="0.1"/>
      <path id="Path_192" data-name="Path 192" d="M332.727,767.82s-11.841,4.351-19.981,4.9c-4.322.289-6.594-2.361-7.756-4.921,3.012,1.014,7.193,2.08,9.391,1.1,2.6-1.155,11.841-1.9,17.021-2.22a7.291,7.291,0,0,0,1.325,1.14Z" transform="translate(-79.148 -199.294)" opacity="0.1"/>
      <path id="Path_193" data-name="Path 193" d="M359.294,278.773c-9.769-3.8-22.335-16.34-19.2-22.2a13.114,13.114,0,0,0,1.221-4.707,42.96,42.96,0,0,0,.089-6.66,91.2,91.2,0,0,0-1.31-10.834s30.5.688,28.721,5.18a16.793,16.793,0,0,0-.459,6.165c.141,2.561.511,5.454.9,7.9.533,3.36,1.066,5.92,1.066,5.92s-1.865,2.612-2.96,2.753S373.311,284.183,359.294,278.773Z" transform="translate(-88.147 -60.919)" fill="#ef9eb6"/>
      <path id="Path_194" data-name="Path 194" d="M325.266,739.849l-.229.252c-9.117-11.027-20.144,2.716-20.144,2.716l-.163-.289.562-6.246,17.295-4.492,2.45,7.489Z" transform="translate(-79.08 -190.224)" opacity="0.1"/>
      <path id="Path_195" data-name="Path 195" d="M413,731.494s-6.66-.141-10.213,2.96-20.721.681-19.981,0a2.435,2.435,0,0,0,.385-1.125l2.331-1.872,27.293-.807C412.914,731.183,413,731.494,413,731.494Z" transform="translate(-99.369 -189.928)" opacity="0.1"/>
      <path id="Path_196" data-name="Path 196" d="M333.965,609.646a20.585,20.585,0,0,0-1.125,3.8,43.446,43.446,0,0,0-.511,10.775c.274,5.18,0,39.9,0,39.9s-5.854,9.258-9.117,12.522,6.66,9.125,6.66,9.125c1.48,8.437-7.489,17.968-7.489,17.968-9.117-11.027-20.144,2.723-20.144,2.723s-5.994-10.361-7.489-14.061,5.854-6.261,8.437-7.763-.126-10.361-.126-10.361-2.22-7.763-4.773-14.845,2.857-42.338,2.857-42.338.281-6.261.955-8.444a14.121,14.121,0,0,0,.2-4.8c-.044-.54-.1-.992-.133-1.3s-.067-.444-.067-.444l.1-.178,3.7-6.9S335.742,605.3,333.965,609.646Z" transform="translate(-76.434 -154.673)" fill="#6c63ff"/>
      <path id="Path_197" data-name="Path 197" d="M410.186,697.967s-6.66-.141-10.213,2.96-20.721.681-19.981,0,.681-5.721.681-5.721c-10.072-13.75-1.48-19.33-1.48-19.33s-4.5-21.646-5.314-29.676c-.57-5.61-1.273-20.721-1.65-29.291-.163-3.7-.259-6.246-.259-6.246l8.229-1.658,1.058-.215,19.848-3.981s.548,3.7.918,6.727a31.447,31.447,0,0,1,.311,3.9c-.133,1.48,0,6.113,0,6.113l.673,13.891a15.778,15.778,0,0,0-.673,4.492c.133,1.769,2.716,27.093,2.716,27.093s4.492,15.112,2.96,16.2S410.186,697.967,410.186,697.967Z" transform="translate(-96.559 -157.216)" fill="#6c63ff"/>
      <path id="Path_198" data-name="Path 198" d="M368.981,239.545a16.8,16.8,0,0,0-.459,6.165,25.347,25.347,0,0,1-26.982-.518,91.217,91.217,0,0,0-1.31-10.842S370.757,235.038,368.981,239.545Z" transform="translate(-88.309 -60.914)" opacity="0.1"/>
      <path id="Path_199" data-name="Path 199" d="M377.213,210.222a25.066,25.066,0,0,1-1.243,7.852,25.324,25.324,0,0,1-49.391-7.245v-.607a25.323,25.323,0,1,1,50.638-.866C377.213,209.648,377.213,209.936,377.213,210.222Z" transform="translate(-84.759 -47.946)" fill="#ef9eb6"/>
      <path id="Path_200" data-name="Path 200" d="M359.294,284.918c-9.769-3.8-22.335-16.34-19.2-22.2a13.114,13.114,0,0,0,1.221-4.707L354.7,269l8.266,6.764,6.29-16.015c.533,3.36,1.066,5.92,1.066,5.92s-1.865,2.612-2.96,2.753S373.311,290.328,359.294,284.918Z" transform="translate(-88.147 -67.064)" opacity="0.1"/>
      <path id="Path_201" data-name="Path 201" d="M390.654,333.084l-11.16,187.6-14.564.955-37.72-108.78L333.4,283.716l1.3-27.286L351.476,270.2l8.281,6.786,6.475-16.481L378.266,271Z" transform="translate(-84.931 -66.661)" fill="#6c63ff"/>
      <path id="Path_202" data-name="Path 202" d="M336.611,609.662a20.58,20.58,0,0,0-1.125,3.8A107.31,107.31,0,0,1,304.93,603.9l-.2-.1.067-1.191v-.622l3.7-6.9S338.387,605.317,336.611,609.662Z" transform="translate(-79.08 -154.689)" opacity="0.1"/>
      <path id="Path_203" data-name="Path 203" d="M380.354,617.5a74.975,74.975,0,0,1-8.185.932c-.163-3.7-.259-6.246-.259-6.246l8.207-1.658Z" transform="translate(-96.544 -158.703)" opacity="0.1"/>
      <path id="Path_204" data-name="Path 204" d="M405.226,611.587c-5.262,1.369-13.387,2.908-20.662,1.946l-.1-4.692,19.848-3.981S404.841,608.523,405.226,611.587Z" transform="translate(-99.806 -157.229)" opacity="0.1"/>
      <path id="Path_205" data-name="Path 205" d="M350.715,523.8c-30.342,5.18-58.131-9.672-58.131-9.672l.266-5.032s.688-57.05-1.221-61.424-3.389-26.546-2.316-29.957-3.944-54.453-3.944-54.453l-.814-20.721-29.794-12.07L268.081,302.7a100.205,100.205,0,0,0,4.633-11.989c2.316-7.208,13.069-14.29,13.069-14.29s11.027-7.075,15.386-6.808,10.072-6.261,10.072-6.261c4.218-10.753,8.037-5.92,8.037-5.92a9.623,9.623,0,0,1-.207,1.591c-1.48,11.841,23.933,49.1,24.3,49.761h0l2.42,58.952,2.45,74.6Z" transform="translate(-66.091 -66.632)" opacity="0.1"/>
      <path id="Path_206" data-name="Path 206" d="M349.6,523.78c-30.342,5.18-58.138-9.673-58.138-9.673l.274-5.032s.688-57.05-1.228-61.424-3.4-26.553-2.309-29.957-3.959-54.453-3.959-54.453l-.821-20.721L253.61,330.4l13.321-27.767a101.769,101.769,0,0,0,4.633-11.989c2.309-7.208,13.069-14.29,13.069-14.29s11.027-7.075,15.378-6.808,10.072-6.261,10.072-6.261c4.226-10.753,8.881-5.92,8.881-5.92,0,.511-.444.74-.207,1.591,3.256,11.449,23.119,49.1,23.482,49.761h0l2.45,58.952,2.457,74.641Z" transform="translate(-65.792 -66.616)" fill="#fff"/>
      <path id="Path_207" data-name="Path 207" d="M362.452,311.048c-3.264-1.362-20.551-21.1-20.551-21.1v-4.492c-.629-1.48-4.366-.577-7.4.459l1.3-27.286,1.48,1.228C340.524,271.3,362.074,310.389,362.452,311.048Z" transform="translate(-86.819 -67.226)" opacity="0.1"/>
      <path id="Path_208" data-name="Path 208" d="M363.559,308.838c-3.271-1.362-20.559-21.1-20.559-21.1v-4.492c-.629-1.48-4.366-.577-7.4.459l1.31-27.286,1.48,1.228C341.639,269.09,363.2,308.186,363.559,308.838Z" transform="translate(-87.105 -66.651)" fill="#fff"/>
      <path id="Path_209" data-name="Path 209" d="M305.285,459.5c.407,0,21.1-2.176,21.1-2.176s12.529,24.636,11.708,30.631-2.309,11.3-7.349,10.361-27.123.74-27.123.74Z" transform="translate(-78.792 -118.875)" opacity="0.1"/>
      <path id="Path_210" data-name="Path 210" d="M304.175,457.236c.407,0,21.1-2.176,21.1-2.176S337.8,479.7,336.982,485.691s-2.316,11.3-7.349,10.361-27.123.74-27.123.74Z" transform="translate(-78.503 -118.288)" fill="#fff"/>
      <path id="Path_211" data-name="Path 211" d="M321.855,442.42s18.99,10.205,19.4,13.321-9.665-1.362-11.841-1.9a27.1,27.1,0,0,0-4.359-.681l-14.512.392Z" transform="translate(-80.591 -115.002)" fill="#ef9eb6"/>
      <circle id="Ellipse_63" data-name="Ellipse 63" cx="1.998" cy="1.998" r="1.998" transform="translate(268.336 241.099)" opacity="0.1"/>
      <circle id="Ellipse_64" data-name="Ellipse 64" cx="1.998" cy="1.998" r="1.998" transform="translate(268.336 240.285)" fill="#3f3d56"/>
      <circle id="Ellipse_65" data-name="Ellipse 65" cx="1.998" cy="1.998" r="1.998" transform="translate(272.014 327.596)" opacity="0.1"/>
      <circle id="Ellipse_66" data-name="Ellipse 66" cx="1.998" cy="1.998" r="1.998" transform="translate(272.014 326.774)" fill="#3f3d56"/>
      <circle id="Ellipse_67" data-name="Ellipse 67" cx="1.998" cy="1.998" r="1.998" transform="translate(270.326 284.347)" opacity="0.1"/>
      <circle id="Ellipse_68" data-name="Ellipse 68" cx="1.998" cy="1.998" r="1.998" transform="translate(270.326 283.533)" fill="#3f3d56"/>
      <path id="Path_212" data-name="Path 212" d="M416.9,405.37s1.362,2.043,0,2.96.133,3.264.133,3.264-3.4,1.991-1.9,3.782.548,9.88.548,9.88l-4.085,6.764s.244,4.359.259,10.25c0,9.191-.54,22.113-3.53,28l.414,48.333s-14.305,5.225-26.279,3.634l-1.776-77.557s2.59-43.981,3.545-52.418a87.832,87.832,0,0,0,.681-13.21s-.407-13.2-1.776-19.33c0,0-1.48-26.546-1.628-33.894-.067-3.515.118-13.772.326-23.526.229-10.664.488-20.721.488-20.721l-2.7-21.373s2.7-.274,3.515.814a7.792,7.792,0,0,0,1.184.91h0c4.662,3.153,21.136,12.847,21.136,12.847s9.117,3.626,11.3,8.821,3.7,8.881,4.759,10.361,1.635,8.437,1.635,8.437,3.138,12.8,5.587,14.971,4.24,15.963,4.24,15.963l-21.646,17.021s-1.9,28.314-2.309,29.41S416.9,405.37,416.9,405.37Z" transform="translate(-98.548 -67.628)" fill="#fff"/>
      <path id="Path_213" data-name="Path 213" d="M417.752,405.3s1.354,2.043,0,2.96.126,3.264.126,3.264-3.375,2.013-1.895,3.8.548,9.88.548,9.88l-4.07,6.8s.244,4.359.266,10.25c0,9.191-.54,22.113-3.53,28l.407,48.333s-14.327,5.225-26.286,3.634l-1.769-77.557s2.59-43.981,3.545-52.418a87.025,87.025,0,0,0,.673-13.21s-.407-13.2-1.769-19.33c0,0-1.48-26.546-1.635-33.894-.067-3.515.126-13.772.326-23.526.229-10.664.488-20.721.488-20.721L379.61,259.91s3.567,0,4.388,1.1a7.025,7.025,0,0,0,1.184.91h0c4.662,3.153,21.143,12.847,21.143,12.847s9.1,3.626,11.315,8.821,3.7,8.881,4.766,10.361,1.628,8.436,1.628,8.436,3.138,12.8,5.587,14.971,4.218,15.933,4.218,15.933l-21.646,17.021s-1.9,28.314-2.316,29.409S417.752,405.3,417.752,405.3Z" transform="translate(-98.546 -67.558)" fill="#fff"/>
      <path id="Path_214" data-name="Path 214" d="M392.112,288.423l1.954,5.7-10.287,10.361c.229-10.657.488-20.721.488-20.721L380.7,262.1s3.567,0,4.388,1.1a6.75,6.75,0,0,0,1.184.9h0l8.747,25.236Z" transform="translate(-98.829 -68.128)" opacity="0.1"/>
      <path id="Path_215" data-name="Path 215" d="M390.992,286.214l1.961,5.7-10.287,10.361c.229-10.664.488-20.721.488-20.721L379.58,259.89s3.574,0,4.388,1.1a7.4,7.4,0,0,0,1.184.91h0l8.8,25.228Z" transform="translate(-98.538 -67.553)" fill="#fff"/>
      <path id="Path_216" data-name="Path 216" d="M377.213,210.222a25.066,25.066,0,0,1-1.243,7.852,1.058,1.058,0,0,1-.8-.2c-.192-6.66-3.471-12.914-7.5-18.235a19.16,19.16,0,0,0-4.07-4.218,7.963,7.963,0,0,0-5.521-1.562c-2.22.3-4.181,1.813-6.424,2.006-2.96.244-5.61-1.806-8.548-1.909a8.4,8.4,0,0,0-6.283,2.916,17.236,17.236,0,0,0-3.367,6.246,36.544,36.544,0,0,0-1.88,10.775c0,2.072-.237,4.67-2.161,5.425a11.056,11.056,0,0,0-2.79-8.444l-.044-.044v-.607a25.323,25.323,0,1,1,50.638-.866C377.213,209.648,377.213,209.936,377.213,210.222Z" transform="translate(-84.759 -47.946)" opacity="0.1"/>
      <path id="Path_217" data-name="Path 217" d="M359.707,164.357a17.436,17.436,0,0,0-12.3-.962c-2.05.607-3.981,1.591-6.061,2.087-4.44,1.073-9.621-.089-13.432,2.509-2.116,1.48-3.389,3.819-4.573,6.091l-2.96,5.639a36.6,36.6,0,0,0-3.915,9.621c-.673,3.4-.266,7.2,1.887,9.931,1.569,1.991,3.885,3.241,5.587,5.114a11.1,11.1,0,0,1,2.783,8.437c1.931-.74,2.117-3.345,2.161-5.417a36.543,36.543,0,0,1,1.88-10.775,17.177,17.177,0,0,1,3.367-6.246,8.414,8.414,0,0,1,6.283-2.916c2.96.1,5.617,2.146,8.547,1.9,2.22-.185,4.189-1.7,6.424-2a7.933,7.933,0,0,1,5.521,1.562,18.96,18.96,0,0,1,4.063,4.218c4.041,5.321,7.319,11.56,7.511,18.235.836.614,2.043-.185,2.457-1.132a27.051,27.051,0,0,1,.955-2.96c.607-1.043,1.769-1.6,2.679-2.383,2.309-1.991,2.886-5.343,2.8-8.385s-.681-6.128-.1-9.117c.348-1.835,1.132-3.552,1.561-5.365a7.015,7.015,0,0,0-.533-5.41c-1.48-2.294-4.6-2.746-7.312-2.96-3.086-.266-5.846.074-7.815-2.524a28.342,28.342,0,0,0-3.108-3.8C363.644,166.962,359.707,164.52,359.707,164.357Z" transform="translate(-82.054 -42.288)" fill="#512e4e"/>
      <path id="Path_218" data-name="Path 218" d="M262.7,370.8l-7.734-14.3-2.45,22.061s1.362,9.8,1.088,11.3,5.58,14.971,5.58,14.971,19.337,34.442,27.234,36.218l26.642-19.064L305.988,413s-2.45-.955-3.064,0c0,0-13.136-22.6-14.5-24.237s-1.1-4.9-1.1-4.9-2.043-2.176-1.362-4.218-3.944-9.125-3.944-9.125l4.218-3.944Z" transform="translate(-65.508 -92.667)" opacity="0.1"/>
      <path id="Path_219" data-name="Path 219" d="M254.8,354.3l-2.042,1.628-2.45,22.061s1.362,9.8,1.088,11.3,5.587,14.971,5.587,14.971,19.33,34.442,27.226,36.218L310.9,421.422l-7.082-8.984s-2.45-.955-3.064,0c0,0-13.136-22.6-14.5-24.237s-1.088-4.9-1.088-4.9-2.043-2.176-1.362-4.218-3.952-9.125-3.952-9.125l4.218-3.944Z" transform="translate(-64.934 -92.095)" fill="#fff"/>
      <path id="Path_220" data-name="Path 220" d="M422.227,466.45c1.48,1.8.548,9.872.548,9.872l-4.085,6.764s.244,4.366.259,10.25l-6.868,2.146a4.078,4.078,0,0,1-5.291-4.018l1.184-38.194,15.992,6.128c-1.362.947.133,3.271.133,3.271S420.732,464.652,422.227,466.45Z" transform="translate(-105.61 -117.822)" opacity="0.1"/>
      <path id="Path_221" data-name="Path 221" d="M423.339,465.378c1.48,1.8.548,9.88.548,9.88L419.817,482s.244,4.359.266,10.25l-6.993,2.22a4,4,0,0,1-5.18-3.937L409.1,452.22l16.029,6.128c-1.369.947.126,3.264.126,3.264S421.859,463.565,423.339,465.378Z" transform="translate(-105.902 -117.55)" fill="#fff"/>
      <path id="Path_222" data-name="Path 222" d="M431.428,443.277s-1.088,6.949-3.811,7.356-3.944,11.241-6.66,10.857-.918-10.072-.821-11.952-2.96-9.665-.673-11.434,9.524,0,9.524,0Z" transform="translate(-108.684 -113.676)" fill="#ef9eb6"/>
      <path id="Path_223" data-name="Path 223" d="M436.241,369.421l5.136-10.361s2.043,7.9,2.043,12.115,2.857,4.633,2.857,4.633,3.13,3.7,1.48,6.394-2.316,9.4-2.316,9.4.54,12.8-1.909,14.564-2.96,5.994-2.96,5.994-4.5,8.03-4.359,9.939-6.261,14.838-6.261,14.838,3.13-16.067-15.112-23.008c0,0-.141-5.454,1.221-6.949s3.486-2.176,2.154-9.732-.385-16.584-.385-18.4,4.085-13.121,4.085-13.121Z" transform="translate(-107.702 -93.332)" opacity="0.1"/>
      <path id="Path_224" data-name="Path 224" d="M439.017,357.06l4.485,1.48s2.05,7.9,2.05,12.115,2.857,4.633,2.857,4.633,3.13,3.7,1.48,6.394-2.309,9.4-2.309,9.4.54,12.8-1.909,14.564-2.96,5.994-2.96,5.994-4.492,8.03-4.352,9.939-6.268,14.838-6.268,14.838,3.138-16.066-15.112-23.008c0,0-.133-5.454,1.228-6.949s3.486-2.176,2.154-9.732-.407-16.585-.407-18.4,4.085-13.121,4.085-13.121Z" transform="translate(-108.259 -92.813)" fill="#fff"/>
      <path id="Path_225" data-name="Path 225" d="M312.91,719.081s7.149-4.492,11.841-1.228S312.91,719.081,312.91,719.081Z" transform="translate(-81.207 -186.292)" opacity="0.1"/>
      <path id="Path_226" data-name="Path 226" d="M388,701.146a14.472,14.472,0,0,1,11.641,4.907C404.955,711.773,388,701.146,388,701.146Z" transform="translate(-100.727 -182.248)" opacity="0.1"/>
      <g id="Group_777" data-name="Group 777" transform="translate(234.097 136.671)" opacity="0.1">
        <path id="Path_227" data-name="Path 227" d="M382.273,211.379c-.91.784-2.08,1.347-2.686,2.39a27.106,27.106,0,0,0-.947,2.96c-.414.962-1.621,1.747-2.457,1.14-.192-6.66-3.478-12.914-7.511-18.242a18.96,18.96,0,0,0-4.063-4.218,7.955,7.955,0,0,0-5.528-1.562c-2.22.3-4.174,1.813-6.416,2-2.96.252-5.617-1.8-8.555-1.9a8.377,8.377,0,0,0-6.276,2.923,17.141,17.141,0,0,0-3.367,6.239,36.588,36.588,0,0,0-1.88,10.775c-.044,2.065-.237,4.64-2.146,5.41a10.141,10.141,0,0,1,0,1.643c1.924-.74,2.117-3.345,2.161-5.417a36.548,36.548,0,0,1,1.88-10.775,17.177,17.177,0,0,1,3.367-6.246,8.4,8.4,0,0,1,6.276-2.916c2.96.1,5.624,2.146,8.555,1.9,2.22-.185,4.189-1.7,6.416-2a7.956,7.956,0,0,1,5.528,1.561,18.96,18.96,0,0,1,4.063,4.218c4.033,5.321,7.319,11.56,7.511,18.235.836.614,2.043-.185,2.457-1.132a28.7,28.7,0,0,1,.947-2.96c.607-1.043,1.776-1.6,2.686-2.383,2.309-1.991,2.886-5.343,2.8-8.385v-.281C384.945,206.991,384.241,209.677,382.273,211.379Z" transform="translate(-319.861 -187.047)"/>
        <path id="Path_228" data-name="Path 228" d="M323.927,212.917c-1.7-1.872-4.026-3.123-5.587-5.106a10.835,10.835,0,0,1-2.153-6.061,11.4,11.4,0,0,0,2.153,7.689c1.562,1.991,3.885,3.241,5.587,5.114a11.1,11.1,0,0,1,2.79,6.6,11.1,11.1,0,0,0-2.79-8.237Z" transform="translate(-316.145 -189.11)"/>
        <path id="Path_229" data-name="Path 229" d="M405.592,186.135c-.437,1.813-1.214,3.537-1.569,5.365a17.1,17.1,0,0,0-.229,3.7,14.378,14.378,0,0,1,.229-2.1c.355-1.835,1.132-3.552,1.569-5.365a9.1,9.1,0,0,0,.244-3.064,10.284,10.284,0,0,1-.244,1.465Z" transform="translate(-338.924 -184.67)"/>
      </g>
      <ellipse id="Ellipse_69" data-name="Ellipse 69" cx="72.11" cy="11.582" rx="72.11" ry="11.582" transform="translate(26.251 539.716)" fill="#6c63ff" opacity="0.1"/>
      <rect id="Rectangle_989" data-name="Rectangle 989" width="4.64" height="104.473" transform="translate(96.045 329.431)" fill="#535461"/>
      <path id="Path_230" data-name="Path 230" d="M882.726,655.648c-.311.9-.592,1.813-.836,2.753H861.539c0-4.81-.089-8.355-.089-8.355l.126-50.582V592.87l20.24.148a46.71,46.71,0,0,0,.873,6.66,103.631,103.631,0,0,0,2.849,11.219C889.076,622.435,887.6,641.758,882.726,655.648Z" transform="translate(-223.801 -154.112)" fill="none"/>
      <path id="Path_231" data-name="Path 231" d="M874.439,709.927c.259,1.983.474,3.16.474,3.16s-5.321,12.122-5.765,12.581-15.659,9.746-15.659,9.746l-10.635,6.209s-10.79-4.729-5.617-6.357a7.719,7.719,0,0,0,2.679-1.791l.111-.111c5.18-4.921,11.685-17.154,11.685-17.154s.444-6.209,2.072-9.162c1.081-1.954,1.184-16.214,1.125-25.628h20.351c-2.546,9.739-1.65,21.654-.918,27.715A3.929,3.929,0,0,0,874.439,709.927Z" transform="translate(-217.142 -177.13)" fill="#ffb0b1"/>
      <path id="Path_232" data-name="Path 232" d="M867.9,719.83l-30.512,27.508-3.545.148-.74-5.18s-6.2,7.978-19.981,7.534c0,0-8.274,5.469,3.989,5.765s27.922-.444,27.922-.444,10.109-17.169,19.241-14.949l-.474,10.753,6.446-1.7-.873-10.183c2.642-1.776,2.96-3.4,3.53-6.534a9.428,9.428,0,0,0-3.264-8.644,5.573,5.573,0,0,1-1.739-4.07Z" transform="translate(-210.528 -187.115)" fill="#1d2366"/>
      <path id="Path_233" data-name="Path 233" d="M962.054,644.59s-.962,5.447-2.716,12.98h-18.56c-.437-7.9-1.3-15.349-1.3-15.349s-.888-26-2.812-31.911a49.144,49.144,0,0,1-1.724-9.206c-.4-3.7-.488-6.749-.488-6.749s7.978-11.1,22.6.888a16.045,16.045,0,0,1,3.056,3.315C970.187,612.931,962.054,644.59,962.054,644.59Z" transform="translate(-242.777 -153.281)" fill="none"/>
      <path id="Path_234" data-name="Path 234" d="M958.659,715.141l-13,18.953-.74,1.058-.156.229-7.534,2.96s-12.115-4.137-9.9-5.321a3.85,3.85,0,0,0,1.073-1.332c.4-.681.851-1.584,1.339-2.62,2.96-6.4,7.045-18.213,7.045-18.213V710.7c.429-4.877,1.11-9.739,1.865-14.579.555-3.567.466-9.258.17-14.742H957.4c-.792,3.419-1.754,7.275-2.864,11.241-1.969,7.031-.9,10.99.451,13.114v.044a22.675,22.675,0,0,1,1.695,3.042,23.854,23.854,0,0,1,1.843,5.595Z" transform="translate(-240.855 -177.12)" fill="#ffb0b1"/>
      <path id="Path_235" data-name="Path 235" d="M960.983,743.308l-.733,8.659,5.935-1.695-1.029-11.781Z" transform="translate(-249.491 -191.973)" fill="#1d2366"/>
      <path id="Path_236" data-name="Path 236" d="M935.329,745.432s-3.7-6.794-10.79-4.285c0,0-3.989,8.14-7.978,9.458s-2.657,5.758,6.357,4.137,22.66-3.826,22.66-3.826l.533-7.4,9.162-11.678s5.461-4.951-2.664-14.7v1.695s1.628,6.66-.3,7.689-10.464,17.894-10.464,17.894Z" transform="translate(-237.573 -186.416)" fill="#1d2366"/>
      <path id="Path_237" data-name="Path 237" d="M952.564,478.072l-3.271,22.594-3.782,14.986-5.447,28.314v29.965s8.229,61.513,6.868,63.141-11.53,4.44-12.892,3.863-12.218,2.168-15.763,3.8c-2.435,1.117-8.844.829-12.625.54a3.034,3.034,0,0,1-2.8-3.138c.229-6.342,1.8-21.128.74-26.235-1.362-6.535,0-34.886,0-34.886l1.362-14.971s1.909-10.079.274-12.8,2.45-13.321,2.45-13.321-1.9-6-1.354-9.539,1.354-16.88,1.354-16.88-1.354,9.265-5.136,14.7-5.18,54.519-5.18,54.519v35.863c0,2.672-.178,7.652,0,10.316,1.177,17.635-2.516,16.222-9.487,16.814-.925.081-1.857-.052-2.783,0-6.66.526-26.642,2.139-30.764-2.22-3.56-3.789,1.258-29.232,1.258-29.232s2.812-24.362,4.988-31.437c1.643-5.351,2.8-23.8,4.351-32.31.533-2.96,4.174-55.163,4.285-58.035s0-29.461,0-37.742v-2.45l3.034-7.726,37-4.633h17.7s26.642,6.261,29.395,8.962a.615.615,0,0,1,.148.163C958.284,451.667,952.564,478.072,952.564,478.072Z" transform="translate(-221.609 -114.355)" fill="#1d2366"/>
      <path id="Path_238" data-name="Path 238" d="M153.165,583.392l-.289,4.707-.414,6.66-.17,2.768-.407,6.66-.178,2.768-.414,6.66-4.677,75.537a12.8,12.8,0,0,1-12.773,12H109.524a12.8,12.8,0,0,1-12.8-12L92.1,613.564l-.414-6.66-.148-2.768-.414-6.66-.17-2.768-.414-6.66-.3-4.707a6.66,6.66,0,0,1,6.276-7.03h50.123a6.616,6.616,0,0,1,6.557,6.66Q153.18,583.185,153.165,583.392Z" transform="translate(-23.322 -149.807)" fill="#3f3d56"/>
      <path id="Path_239" data-name="Path 239" d="M152.966,592.25l-.414,6.638H90.994l-.414-6.638Z" transform="translate(-23.419 -153.958)" fill="#9d9cb5"/>
      <path id="Path_240" data-name="Path 240" d="M152.589,604.96l-.407,6.646H91.794l-.414-6.646Z" transform="translate(-23.627 -157.262)" fill="#9d9cb5"/>
      <path id="Path_241" data-name="Path 241" d="M152.218,617.69l-.414,6.638H92.577l-.407-6.638Z" transform="translate(-23.832 -160.571)" fill="#9d9cb5"/>
      <path id="Path_242" data-name="Path 242" d="M60.076,490.755c27.019,19.552,38.3,50.131,38.3,50.131s-32.562-1.118-59.589-20.67S.51,470.13.51,470.13,33.057,471.24,60.076,490.755Z" transform="translate(0.002 -122.205)" fill="#6c63ff"/>
      <path id="Path_243" data-name="Path 243" d="M.48,470.13s33.805,18.76,44.647,34.294,53.246,36.5,53.246,36.5" transform="translate(0.01 -122.205)" fill="none" stroke="#0052cc" stroke-miterlimit="10" stroke-width="2"/>
      <path id="Path_244" data-name="Path 244" d="M93.189,440.879c14.7,10.634,20.855,27.278,20.855,27.278s-17.724-.607-32.436-11.241S60.76,429.63,60.76,429.63,78.477,430.237,93.189,440.879Z" transform="translate(-15.66 -111.677)" fill="#6c63ff"/>
      <path id="Path_245" data-name="Path 245" d="M60.76,429.63s18.4,10.213,24.3,18.664,28.988,19.863,28.988,19.863" transform="translate(-15.66 -111.677)" fill="none" stroke="#0052cc" stroke-miterlimit="10" stroke-width="2"/>
      <path id="Path_246" data-name="Path 246" d="M154.433,471.972C137.537,490.539,134,514.806,134,514.806s23.822-5.846,40.7-24.422,20.47-42.834,20.47-42.834S171.328,453.4,154.433,471.972Z" transform="translate(-34.699 -116.336)" fill="#6c63ff"/>
      <path id="Path_247" data-name="Path 247" d="M195.137,447.56s-22.009,19.034-27.6,32.148-33.583,35.1-33.583,35.1" transform="translate(-34.686 -116.338)" fill="none" stroke="#0052cc" stroke-miterlimit="10" stroke-width="2"/>
      <path id="Path_248" data-name="Path 248" d="M927.485,507.84s-11.959,46.371-27.9,41.073-32.436,1.347-50.745-.5a29.979,29.979,0,0,1-6.66-1.954l31.874-97.3,4.2-6.875.821-.274,20.24-6.623,14.8-4.862S926.494,505.368,927.485,507.84Z" transform="translate(-218.791 -111.909)" fill="#1d2366"/>
      <path id="Path_249" data-name="Path 249" d="M826.845,380.37s-10.361,11.1-2.516,17.288,13,.592,13,.592Z" transform="translate(-213.388 -98.872)" fill="#c7daf5"/>
      <path id="Path_250" data-name="Path 250" d="M826.845,380.37s-10.361,11.1-2.516,17.288,13,.592,13,.592Z" transform="translate(-213.388 -98.872)" opacity="0.1"/>
      <path id="Path_251" data-name="Path 251" d="M903.537,294.447l1.865-2.627s1.236,7.534,5.78,4.211,4.736,25.006,4.736,25.006l-4.877,72.917L875.83,391.86l1-35.234,3.989-17.761,9.865-25.82,5.869-8.533Z" transform="translate(-227.539 -75.853)" opacity="0.1"/>
      <path id="Path_252" data-name="Path 252" d="M915.916,321.642l-4.44,65.931-.466,6.986-19.648-1.177-.74-.044-14.8-.888,1.029-35.219,3.989-17.761,9.865-25.82,5.869-8.533,6.986-10.087,1.865-2.62s1.236,7.534,5.78,4.211l.1-.067h0C915.738,293.72,915.916,321.642,915.916,321.642Z" transform="translate(-227.536 -76.007)" fill="#1d2366"/>
      <path id="Path_253" data-name="Path 253" d="M867.228,347.63s-1.769,3.7-5.321,3.1-3.545,13.321-3.545,13.321-2.361,2.22-3.989.3-5.92,4.581-5.92,4.581l-26.893,1.177s11.967,5.469,9.621,22.016c0,0,40.629-2.516,41.961-6.357S867.228,347.63,867.228,347.63Z" transform="translate(-213.431 -90.361)" fill="#fff"/>
      <path id="Path_254" data-name="Path 254" d="M867.228,347.63s-1.769,3.7-5.321,3.1-3.545,13.321-3.545,13.321-2.361,2.22-3.989.3-5.92,4.581-5.92,4.581l-26.893,1.177s11.967,5.469,9.621,22.016c0,0,40.629-2.516,41.961-6.357S867.228,347.63,867.228,347.63Z" transform="translate(-213.431 -90.361)" opacity="0.03"/>
      <path id="Path_255" data-name="Path 255" d="M777.66,389.77l7.1,6.054,58.36,12.263L835.88,400.7Z" transform="translate(-202.027 -101.323)" fill="#fff"/>
      <path id="Path_256" data-name="Path 256" d="M894.854,296.089c-.969,1.48-3.745,9.058-6.061,15.674-1.931,5.513-3.545,10.361-3.545,10.361s-3.767,24.525-5.691,28.958-.881,21.72-.881,21.72L871.506,415.5s-3.249,22.016-8.266,35.167c-4.958,12.944-21.069,59.315-21.239,59.507,2.22-3,24.925-102.467,24.925-102.467l4-74.612s.585-7.09,1.177-13.151,12.581-14.335,12.581-14.335l11.56-16.437C897.4,290.724,896.623,293.433,894.854,296.089Z" transform="translate(-218.745 -75.164)" fill="#fff"/>
      <path id="Path_257" data-name="Path 257" d="M863.27,422.341s-17.021-.74-25.265-10.642,19.056-3.952,19.056-3.952l7.1,1.628Z" transform="translate(-217.303 -105.528)" fill="#ffb0b1"/>
      <path id="Path_258" data-name="Path 258" d="M958.2,507.533a21.565,21.565,0,0,0-.429,9.909c-18.568,1.317-38.431-3.7-38.431-3.7-3.7,3.4-13.447,8.422-13.447,8.422L900.579,456.3c-3.4-8.881-4.729-55.407-4.729-55.407s.3-2.435.74-6.083a.74.74,0,0,1,0-.274c1.325-10.19,3.952-29.321,5.24-31.9,1.776-3.552-5.462-13-5.462-13l3.293-28.122.4-3.389c6.942-3.1,12.263-13,12.263-13l4.085-7.156h0c4.44-2.849,4.67,25.073,4.67,25.073l-4.4,65.931,14.712-4.063S960.708,499.111,958.2,507.533Z" transform="translate(-232.743 -77.396)" opacity="0.1"/>
      <path id="Path_259" data-name="Path 259" d="M977.567,505.909c-20.24,10.05-57.028.74-57.028.74-3.7,3.4-13.447,8.422-13.447,8.422l-5.321-65.864c-3.389-8.881-4.721-55.407-4.721-55.407s4.277-34.716,6.053-38.261c.518-1.036.266-2.575-.348-4.233a53.566,53.566,0,0,1-3.242-24.762l1.421-12.07.392-3.382c6.949-3.108,12.27-13.01,12.27-13.01l3.7-6.483,6.808-11.944L927.355,274l.548.5,4.181,3.789,4.44,3.7c5.795,4.884,15.807,13.484,20.973,18.745,4.544,4.633,5.98,22.653,6.394,36.218.274,8.932.111,15.933.111,15.933-4.581,7.541,7.4,68.084,7.4,68.084C974.171,432.644,977.567,505.909,977.567,505.909Z" transform="translate(-233.055 -71.221)" fill="#fff"/>
      <path id="Path_260" data-name="Path 260" d="M931.476,305.943s-13.891,26.412-12.277,36.492,6.2,21.461,3.989,24.081a8.177,8.177,0,0,1-6.505,3.249c-2.22.148-8.14,4.285-8.14,4.729s-5.469.444-10.361,2.516a64.5,64.5,0,0,1-12.107,3.249s-14.061-.444-15.371.888-2.657,9.3.148,15.659,5.92,11.1,8.274,11.967,17.288-4.137,29.4-5.321,25.265-10.782,25.265-10.782,14.483-5.18,17.021-13.891-3.1-56.584-3.1-56.584S943.442,299.882,931.476,305.943Z" transform="translate(-225.816 -79.253)" opacity="0.03"/>
      <path id="Path_261" data-name="Path 261" d="M929.118,302.944s-13.928,26.412-12.3,36.492,6.2,21.461,3.981,24.089a8.14,8.14,0,0,1-6.5,3.249c-2.22.148-8.141,4.285-8.141,4.729s-5.469.444-10.361,2.509a65.147,65.147,0,0,1-12.115,3.249s-14.061-.444-15.363.888-2.664,9.31.148,15.659,5.92,11.1,8.274,11.967,17.287-4.137,29.4-5.314,25.265-10.79,25.265-10.79,14.475-5.18,16.984-13.883-3.1-56.591-3.1-56.591S941.047,296.89,929.118,302.944Z" transform="translate(-225.197 -78.474)" opacity="0.03"/>
      <path id="Path_262" data-name="Path 262" d="M930.888,304.147s-13.883,26.449-12.263,36.492,6.2,21.461,3.989,24.081a8.141,8.141,0,0,1-6.505,3.256c-2.22.148-8.14,4.285-8.14,4.722s-5.462.444-10.361,2.516a64.658,64.658,0,0,1-12.115,3.249s-14.061-.444-15.371.888-2.657,9.31.148,15.659,5.92,11.1,8.274,11.967,17.288-4.137,29.4-5.321,25.265-10.783,25.265-10.783,14.483-5.18,17.021-13.891-3.064-56.584-3.064-56.584S942.848,298.123,930.888,304.147Z" transform="translate(-225.665 -78.789)" fill="#fff"/>
      <path id="Path_263" data-name="Path 263" d="M949.521,400.138s-11.1-2.22-7.238,1.48,3.841,6.942,8.57,6.794S949.521,400.138,949.521,400.138Z" transform="translate(-244.601 -103.839)" opacity="0.1"/>
      <path id="Path_264" data-name="Path 264" d="M977.24,507.95s-5.017,3.4,4.581,11.227S977.24,507.95,977.24,507.95Z" transform="translate(-253.56 -132.037)" opacity="0.1"/>
      <path id="Path_265" data-name="Path 265" d="M964.684,545.68c0,.444-1.776,16.281,4.87,20.24S964.684,545.68,964.684,545.68Z" transform="translate(-250.581 -141.845)" opacity="0.1"/>
      <path id="Path_266" data-name="Path 266" d="M817.75,378c-5.358.185-16.932,1.821-10.931,13.017,5.306,9.909,14.224,3.286,19.241-1.739A18.909,18.909,0,0,0,817.75,378Z" transform="translate(-209.162 -98.256)" fill="#ffb0b1"/>
      <path id="Path_267" data-name="Path 267" d="M834.15,392.37Z" transform="translate(-216.704 -101.991)" fill="#ffb0b1"/>
      <path id="Path_268" data-name="Path 268" d="M833.5,393l.222-.229Z" transform="translate(-216.535 -102.095)" fill="#ffb0b1"/>
      <path id="Path_269" data-name="Path 269" d="M937.872,282.56c-5.684,3.885-10.449,7.127-11.367,7.867-2.546,1.887-7.4,12.966-10.531,18.62-2.494,4.551-10.6,5.721-13.654,6.009l.392-3.382c6.949-3.108,12.27-13.01,12.27-13.01l13.743-24.1,4.729,4.3Z" transform="translate(-234.425 -71.367)" opacity="0.1"/>
      <path id="Path_270" data-name="Path 270" d="M937.867,281.97c-5.683,3.885-10.449,7.164-11.382,7.852-2.546,1.88-7.4,12.958-10.531,18.612-2.494,4.551-10.6,5.721-13.654,6.009l.392-3.382c6.949-3.108,12.27-13.01,12.27-13.01L928.72,274l4.729,4.285S935.2,279.721,937.867,281.97Z" transform="translate(-234.42 -71.221)" fill="#dce7ff"/>
      <path id="Path_271" data-name="Path 271" d="M909.238,296.663c-.969,1.48-3.745,9.058-6.061,15.674-2.168-.844-4.137-6.224-4.137-6.224L910.6,289.67C911.784,291.3,911.007,294,909.238,296.663Z" transform="translate(-233.572 -75.294)" opacity="0.1"/>
      <path id="Path_272" data-name="Path 272" d="M909.838,296.066c-.969,1.48-3.745,9.058-6.061,15.674-2.168-.836-4.137-6.224-4.137-6.224L911.2,289.08C912.384,290.7,911.607,293.409,909.838,296.066Z" transform="translate(-233.728 -75.141)" fill="#dce7ff"/>
      <path id="Path_273" data-name="Path 273" d="M820.317,392.716l-6.409-20.211a1.887,1.887,0,0,1,1.221-2.375h0a1.894,1.894,0,0,1,2.368,1.228l6.409,20.188-.636,4.226Z" transform="translate(-211.419 -96.187)" fill="#be8b87"/>
      <path id="Path_274" data-name="Path 274" d="M814.622,370.769h0A1.9,1.9,0,0,1,817,372l6.409,20.189-.481,3.167.466.488.636-4.226-6.446-20.189a1.9,1.9,0,0,0-2.368-1.228h0a1.9,1.9,0,0,0-.984.74A2.575,2.575,0,0,1,814.622,370.769Z" transform="translate(-211.526 -96.206)" fill="#fff" opacity="0.1"/>
      <path id="Path_275" data-name="Path 275" d="M822.61,400.29l3.6-1.14-.533,3.463-.1.762-1.058-1.1Z" transform="translate(-213.712 -103.761)" fill="#efc8c4"/>
      <path id="Path_276" data-name="Path 276" d="M825.18,403.285a.74.74,0,0,1,.229-.192.325.325,0,0,1,.348,0,.921.921,0,0,1,.126.2.637.637,0,0,0,.459.3l-.111.74Z" transform="translate(-214.372 -104.766)" fill="#727a9c"/>
      <path id="Path_277" data-name="Path 277" d="M813.89,383.07s12.855-.074,9.828,5.395-7.756,6.128-7.756,6.128Z" transform="translate(-211.437 -99.574)" fill="#ffb0b1"/>
      <path id="Path_278" data-name="Path 278" d="M646.458,51.42H645.9a63.3,63.3,0,0,0-52.847,28.928A63.3,63.3,0,0,0,540.21,51.42h-.555a62.9,62.9,0,0,0-62.3,62.867c0,20.581,9.014,49.783,26.59,73.812,33.487,45.787,89.117,85.846,89.117,85.846s55.629-40.051,89.109-85.846c17.584-24.029,26.56-53.232,26.56-73.812A62.9,62.9,0,0,0,646.459,51.42Zm-7.941,140.2a12.47,12.47,0,0,1-11.6-8.044h-13.2a4.174,4.174,0,0,1-3.93-2.842l-4.055-12.218L592.9,213.357a4.152,4.152,0,0,1-3.981,2.96h-.259a4.1,4.1,0,0,1-3.848-3.434l-13.225-79.466-9.665,47.067a4.122,4.122,0,0,1-4,3.13h-18.6a4.137,4.137,0,0,1-.348-8.266h15.689l13.691-63.282a4.152,4.152,0,0,1,8.14.34L590,193.546l11.5-40.118a4.07,4.07,0,0,1,3.871-2.96h.081a4.129,4.129,0,0,1,3.922,2.842l7.334,22.061h10.05a12.4,12.4,0,1,1,11.782,16.281Z" transform="translate(-123.953 -13.361)" fill="#6c63ff"/>
      <line id="Line_210" data-name="Line 210" x1="2.494" y2="21.595" transform="translate(640.055 437.707)"/>
      <line id="Line_211" data-name="Line 211" x1="39.889" transform="translate(838.373 476.02)" fill="none"/>
      <line id="Line_212" data-name="Line 212" x1="13.706" transform="translate(896.844 476.02)" fill="none"/>
      <line id="Line_213" data-name="Line 213" x1="14.29" transform="translate(803.731 476.02)" fill="none"/>
      <circle id="Ellipse_70" data-name="Ellipse 70" cx="22.838" cy="22.838" r="22.838" transform="translate(650.911 168.5)" fill="#ffb0b1"/>
      <path id="Path_279" data-name="Path 279" d="M881.059,236.008s20.559-.422,25.287,14.8a16.615,16.615,0,0,0,1.843,3.856c2.22,3.493-.318,10.686-5.417,16.281-1.613,1.783-16.681,21.861-22.527,31.5-.807,1.325-11.944,23.948-9,27.064,4.2,4.44,68.084,3.989,93.431-8.466,4.2-2.057.74-24.022-21.535-51.633-3.552-4.4-5.055-9.265-7.534-14.35-2.82-5.78-6.017-12.144-12.226-19.012-10.22-11.3-25.1-12.736-36.847-5.284a21.144,21.144,0,0,0-5.476,5.24Z" transform="translate(-226.219 -58.783)" fill="#171e56"/>
    </g>
  </g>
</svg>
